<svg xmlns="http://www.w3.org/2000/svg" width="1848.59" height="940.33" viewBox="0 0 1848.59 940.33"><g style="isolation:isolate"><rect x="908.27" width="940.33" height="940.33" fill="#2aba9f"/><circle cx="402.8" cy="180.65" r="287.75" transform="translate(963.67 733.35) rotate(-45)" fill="none" stroke-dasharray="0.22 10.78" stroke-linecap="round" stroke-linejoin="round" stroke-width="5.39" stroke="#fff"/><rect x="1151.89" y="553.62" width="448.68" height="343.01" rx="10.97" fill="#f1f2f2"/><rect x="1175.26" y="583.22" width="401.96" height="283.8" fill="#85d0cf"/><path d="M132,465v14.31a25.26,25.26,0,0,0,25.25,25.25H648.38a25.25,25.25,0,0,0,25.25-25.25V465Z" transform="translate(973.44 395.61)" fill="#e6e7e8"/><rect x="1105.4" y="860.63" width="541.67" height="9.99" fill="#a7a9ac"/><rect x="1305.29" y="867.86" width="141.9" height="7.73" fill="#6d6e71"/><path d="M546,465V133.45a3.44,3.44,0,0,0-3.45-3.45H263.07a3.45,3.45,0,0,0-3.45,3.45V465Z" transform="translate(973.44 395.61)" fill="#004c50"/><path d="M534.53,465V227.51a3.1,3.1,0,0,0-3.18-3H274.23a3.1,3.1,0,0,0-3.17,3V465Z" transform="translate(973.44 395.61)" fill="#fff"/><path d="M341.4,210.26V179.38h4.85a25.39,25.39,0,0,1,6.18.54,8.25,8.25,0,0,1,4.41,2.73,7.14,7.14,0,0,1,1.64,4.7,7,7,0,0,1-.74,3.21,8.27,8.27,0,0,1-2.43,2.69,9.75,9.75,0,0,1,4.12,3.31,8.4,8.4,0,0,1,1.3,4.69,9,9,0,0,1-4.81,7.95,13.45,13.45,0,0,1-5.87,1.06ZM347.27,185v6.51h1.29a4.78,4.78,0,0,0,3.19-.9,3.08,3.08,0,0,0,1-2.46,2.88,2.88,0,0,0-1-2.3,4.56,4.56,0,0,0-3-.85Zm0,11.76v7.91h1.48c2.44,0,4.08-.31,4.93-.92A3.12,3.12,0,0,0,355,201a3.76,3.76,0,0,0-1.5-3.15c-1-.77-2.65-1.15-5-1.15Z" transform="translate(973.44 395.61)" fill="#fff" stroke="#fff" stroke-miterlimit="10" stroke-width="0.74"/><path d="M371.49,179.38h5.88v25.27h8.56v5.61H371.49Z" transform="translate(973.44 395.61)" fill="#fff" stroke="#fff" stroke-miterlimit="10" stroke-width="0.74"/><path d="M410.14,178.6a15.31,15.31,0,0,1,11.27,4.75,15.75,15.75,0,0,1,4.72,11.56,15.58,15.58,0,0,1-4.66,11.44,16.13,16.13,0,0,1-22.84-.12,16.23,16.23,0,0,1,11.51-27.63Zm-.06,5.75a9.73,9.73,0,0,0-7.21,3,10.38,10.38,0,0,0-2.92,7.58,9.86,9.86,0,0,0,3.68,8.1,10,10,0,0,0,6.55,2.33,9.56,9.56,0,0,0,7.13-3,10.89,10.89,0,0,0,0-14.91A9.67,9.67,0,0,0,410.08,184.35Z" transform="translate(973.44 395.61)" fill="#fff" stroke="#fff" stroke-miterlimit="10" stroke-width="0.74"/><path d="M465.34,184.41l-4.14,4.1a12.26,12.26,0,0,0-9.16-4.16,10.46,10.46,0,0,0-7.64,3,9.9,9.9,0,0,0-3.08,7.34,10.18,10.18,0,0,0,3.2,7.58,10.85,10.85,0,0,0,7.88,3.11,9.66,9.66,0,0,0,5.13-1.28,9.05,9.05,0,0,0,3.38-4h-9v-5.53H467.5l0,1.31a15.1,15.1,0,0,1-2.1,7.68,14.63,14.63,0,0,1-5.44,5.54,15.4,15.4,0,0,1-7.83,1.91A17.4,17.4,0,0,1,443.6,209a15.31,15.31,0,0,1-6-6,16.5,16.5,0,0,1-2.2-8.33A15.47,15.47,0,0,1,439.49,184,16,16,0,0,1,452,178.6a19.13,19.13,0,0,1,7.53,1.49A17.37,17.37,0,0,1,465.34,184.41Z" transform="translate(973.44 395.61)" fill="#fff" stroke="#fff" stroke-miterlimit="10" stroke-width="0.74"/><rect x="1242.17" y="534.49" width="268.13" height="26.14" fill="#f58437"/><rect x="1248.6" y="540.92" width="209.53" height="13.27" fill="#fff"/><path d="M477.22,147.87a2.93,2.93,0,1,1-4.14,0A2.93,2.93,0,0,1,477.22,147.87Z" transform="translate(973.44 395.61)" fill="none" stroke="#0f1f2f" stroke-miterlimit="10" stroke-width="0.57"/><path d="M478.21,154.05l2.6,2.6a.74.74,0,1,0,1.05-1.05l-2.6-2.6Z" transform="translate(973.44 395.61)" fill="#0f1f2f"/><rect x="477.85" y="151.41" width="0.82" height="3.29" transform="translate(1005.67 779.36) rotate(-45.09)" fill="#0f1f2f"/><path d="M506.3,151.94a4.62,4.62,0,1,1-4.62-4.62A4.62,4.62,0,0,1,506.3,151.94Z" transform="translate(973.44 395.61)" fill="#fff"/><path d="M518.87,151.94a4.62,4.62,0,1,1-4.63-4.62A4.62,4.62,0,0,1,518.87,151.94Z" transform="translate(973.44 395.61)" fill="#fff"/><path d="M531.43,151.94a4.62,4.62,0,1,1-4.62-4.62A4.62,4.62,0,0,1,531.43,151.94Z" transform="translate(973.44 395.61)" fill="#fff"/><rect x="1407.77" y="634.49" width="88.57" height="8.7" fill="#c74e4a"/><rect x="1407.77" y="648.31" width="88.57" height="5.68" fill="#dcddde"/><rect x="1407.77" y="659.1" width="88.57" height="5.68" fill="#dcddde"/><rect x="1407.77" y="669.89" width="88.57" height="5.68" fill="#dcddde"/><rect x="1407.77" y="680.68" width="59.57" height="5.68" fill="#dcddde"/><rect x="1407.77" y="690.18" width="88.57" height="8.59" fill="#c74e4a"/><rect x="1407.77" y="702.41" width="88.57" height="5.68" fill="#dcddde"/><rect x="1407.77" y="713.2" width="88.57" height="5.68" fill="#dcddde"/><rect x="1407.77" y="723.99" width="74.73" height="5.68" fill="#dcddde"/><rect x="1283.08" y="631.53" width="83.07" height="6.79" fill="#f58437"/><rect x="1256.13" y="643.07" width="140.01" height="5.09" fill="#dcddde"/><rect x="1256.13" y="654.38" width="140.01" height="5.09" fill="#dcddde"/><rect x="1256.13" y="665.7" width="74.36" height="5.09" fill="#dcddde"/><rect x="1256.13" y="688.33" width="140.01" height="5.09" fill="#dcddde"/><rect x="1256.13" y="699.2" width="39.61" height="5.08" fill="#dcddde"/><rect x="1306.19" y="699.2" width="39.61" height="5.08" fill="#dcddde"/><rect x="1356.25" y="699.2" width="39.61" height="5.08" fill="#dcddde"/><rect x="1256.13" y="709.6" width="39.61" height="5.09" fill="#dcddde"/><rect x="1306.19" y="709.6" width="39.61" height="5.09" fill="#dcddde"/><rect x="1356.25" y="709.6" width="39.61" height="5.09" fill="#dcddde"/><rect x="1256.13" y="720.01" width="39.61" height="5.09" fill="#dcddde"/><rect x="1306.19" y="720.01" width="39.61" height="5.09" fill="#dcddde"/><rect x="1356.25" y="720.01" width="39.61" height="5.09" fill="#dcddde"/><rect x="1256.13" y="730.42" width="39.61" height="5.09" fill="#dcddde"/><rect x="1306.19" y="730.42" width="39.61" height="5.09" fill="#dcddde"/><rect x="1356.25" y="730.42" width="39.61" height="5.09" fill="#dcddde"/><rect x="1283.08" y="676.17" width="83.07" height="6.79" fill="#f58437"/><line x1="1402.85" y1="624.55" x2="1402.85" y2="739.61" fill="none" stroke="#073857" stroke-miterlimit="10" stroke-width="0.89"/><line x1="1250.58" y1="748.14" x2="1501.89" y2="748.14" fill="none" stroke="#073857" stroke-miterlimit="10" stroke-width="1.32"/><rect x="1407.35" y="761.12" width="89.42" height="60.88" fill="#c74e4a"/><rect x="1407.35" y="822" width="89.42" height="7.32" fill="#7a1d28"/><path d="M511.57,430a1.11,1.11,0,0,1-1.1,1.11H452.7a1.11,1.11,0,0,1-1.11-1.11h0a1.11,1.11,0,0,1,1.11-1.11h57.77a1.11,1.11,0,0,1,1.1,1.11Z" transform="translate(973.44 395.61)" fill="#fff" opacity="0.3"/><path d="M486.11,428.93H452.7a1.11,1.11,0,0,0,0,2.22h33.41Z" transform="translate(973.44 395.61)" fill="#fff"/><path d="M436.53,428a.22.22,0,0,0-.13.2v3.64a.22.22,0,0,0,.13.2.23.23,0,0,0,.24-.05l1.82-1.82a.22.22,0,0,0,.06-.15.23.23,0,0,0-.06-.16l-1.82-1.81A.21.21,0,0,0,436.53,428Z" transform="translate(973.44 395.61)" fill="#fff"/><path d="M1414.25,823.62h.3a.21.21,0,0,1,.21.21v3.67a.2.2,0,0,1-.2.2h-.3a.2.2,0,0,1-.2-.2v-3.66A.2.2,0,0,1,1414.25,823.62Z" fill="#fff"/><path d="M442.87,431.87a.21.21,0,0,1-.2.21h-.31a.21.21,0,0,1-.2-.21v-3.66a.2.2,0,0,1,.2-.21h.31a.2.2,0,0,1,.2.21Z" transform="translate(973.44 395.61)" fill="#fff"/><path d="M1418.27,824h2.83a.24.24,0,0,1,.24.24v2.83a.25.25,0,0,1-.25.25h-2.83a.25.25,0,0,1-.25-.25v-2.83A.25.25,0,0,1,1418.27,824Z" fill="#fff"/><path d="M516.55,428.17a.27.27,0,0,1,.27.27V429h.24v-.72a.31.31,0,0,0-.31-.31H516v.24Z" transform="translate(973.44 395.61)" fill="#fff"/><path d="M513.08,428.44a.27.27,0,0,1,.28-.27h.52v-.24h-.73a.31.31,0,0,0-.31.31V429h.24Z" transform="translate(973.44 395.61)" fill="#fff"/><path d="M516.82,431.64a.28.28,0,0,1-.27.28H516v.23h.72a.31.31,0,0,0,.31-.31v-.72h-.24Z" transform="translate(973.44 395.61)" fill="#fff"/><path d="M513.36,431.92a.28.28,0,0,1-.28-.28v-.52h-.24v.72a.31.31,0,0,0,.31.31h.73v-.23Z" transform="translate(973.44 395.61)" fill="#fff"/><path d="M519.06,430.1v1.17h-.42V428.5h.42v1.18h.5V428.5H520v2.77h-.42V430.1Z" transform="translate(973.44 395.61)" fill="#fff"/><path d="M521.67,430.61a.65.65,0,0,1-.2.47.6.6,0,0,1-.46.19h-.66V428.5H521a.61.61,0,0,1,.47.2.66.66,0,0,1,.19.46Zm-.9.25H521a.21.21,0,0,0,.17-.07.23.23,0,0,0,.07-.17v-1.45a.24.24,0,0,0-.24-.24h-.25Z" transform="translate(973.44 395.61)" fill="#fff"/><path d="M478.62,381.86a17.74,17.74,0,1,1-17.74,17.74,17.74,17.74,0,0,1,17.74-17.74m0-2.94A20.68,20.68,0,1,0,499.3,399.6a20.71,20.71,0,0,0-20.68-20.68Z" transform="translate(973.44 395.61)" fill="#fffefe"/><path d="M475.25,389.15a1.12,1.12,0,0,0-.7,1V409a1.13,1.13,0,0,0,1.93.8l9.41-9.41a1.13,1.13,0,0,0,0-1.6l-9.41-9.41A1.12,1.12,0,0,0,475.25,389.15Z" transform="translate(973.44 395.61)" fill="#fffefe"/><rect x="1301.92" y="836.61" width="143.41" height="4.44" fill="#f58437"/><rect x="1255.38" y="844.16" width="241.7" height="3.33" fill="#dcddde"/><rect x="1255.38" y="851.56" width="241.7" height="3.33" fill="#dcddde"/><rect x="1255.38" y="858.96" width="128.37" height="1.67" fill="#dcddde"/><rect x="1330.81" y="768.83" width="69.49" height="4.04" fill="#dcddde"/><rect x="1330.81" y="777.8" width="69.49" height="4.03" fill="#dcddde"/><rect x="1330.81" y="786.78" width="69.49" height="4.04" fill="#dcddde"/><rect x="1330.81" y="795.76" width="69.49" height="4.04" fill="#dcddde"/><rect x="1330.81" y="804.73" width="69.49" height="4.04" fill="#dcddde"/><rect x="1330.81" y="813.71" width="69.49" height="4.03" fill="#dcddde"/><rect x="1330.81" y="822.69" width="69.49" height="4.03" fill="#dcddde"/><circle cx="317.28" cy="401.19" r="28.85" transform="translate(881.73 1103.96) rotate(-88.57)" fill="#2aba9f"/><path d="M327.84,383.38c-4.39-4.75-15.67-5.68-23.79-.37-3.49,2.28-4.3,5.67-5,12.81a28,28,0,0,1-3.07,9.12c-1.18,2.1,4.34,2.75,4.34,2.75a12.56,12.56,0,0,1,1.25,5.31c.12,2-.16,5.37,3.48,5.37,0,0,8.06-.79,8.86.77.71,1.35.75,6.39-2.86,10.21a28.85,28.85,0,0,0,21.73-3.8,85.16,85.16,0,0,1,.13-22.77C334.41,390.64,330.86,386.65,327.84,383.38Z" transform="translate(973.44 395.61)" fill="#f26522"/><path d="M327.76,386.77A11.72,11.72,0,0,1,331,392c1,3.72.27,8-4,9.09a8.33,8.33,0,0,1-5.38-.14,36.61,36.61,0,0,1-4.51-2.67,18.91,18.91,0,0,0-5.45-2.13,11.57,11.57,0,0,0-2.93-.34c-1.53,0-3.55.17-4.62-1.17a6.09,6.09,0,0,1-1-3.86,9.51,9.51,0,0,1,.35-2.25c.88-3,4-4.89,6.75-5.78,3.69-1.19,7.9-.59,11.53.53A14.49,14.49,0,0,1,327.76,386.77Z" transform="translate(973.44 395.61)" fill="#fff"/><path d="M321.92,392.45a3.18,3.18,0,1,1,2.51-3.73A3.18,3.18,0,0,1,321.92,392.45Zm-1-5.28a2.2,2.2,0,1,0,2.58,1.74A2.2,2.2,0,0,0,320.89,387.17Z" transform="translate(973.44 395.61)" fill="#f58437"/><path d="M321.7,386.7l-.2-1.05a.67.67,0,0,0-.81-.48l-.36.07a.67.67,0,0,0-.58.75L320,387Z" transform="translate(973.44 395.61)" fill="#f58437"/><path d="M322.7,391.8l.2,1.05a.66.66,0,0,1-.57.75l-.36.07a.68.68,0,0,1-.82-.48l-.2-1.05Z" transform="translate(973.44 395.61)" fill="#f58437"/><path d="M318.61,389l-1.06.21a.67.67,0,0,0-.48.81l.07.36a.68.68,0,0,0,.75.58l1.06-.21Z" transform="translate(973.44 395.61)" fill="#f58437"/><path d="M323.71,388.05l1.05-.21a.67.67,0,0,1,.75.58l.07.36a.67.67,0,0,1-.48.81l-1.05.21Z" transform="translate(973.44 395.61)" fill="#f58437"/><path d="M319.67,387.23l-.89-.6a.66.66,0,0,0-.91.24l-.21.3a.68.68,0,0,0,.12.94l.89.6Z" transform="translate(973.44 395.61)" fill="#f58437"/><path d="M324,390.13l.89.6a.67.67,0,0,1,.12.94l-.2.3a.68.68,0,0,1-.92.24l-.89-.6Z" transform="translate(973.44 395.61)" fill="#f58437"/><path d="M319.14,391.08l-.6.89a.66.66,0,0,0,.23.91l.31.2A.66.66,0,0,0,320,393l.6-.89Z" transform="translate(973.44 395.61)" fill="#f58437"/><path d="M322,386.77l.6-.89a.68.68,0,0,1,.94-.13l.3.21a.67.67,0,0,1,.24.91l-.6.89Z" transform="translate(973.44 395.61)" fill="#f58437"/><path d="M312.94,394a2.89,2.89,0,1,1,3.39-2.28A2.89,2.89,0,0,1,312.94,394Zm.93-4.8a2,2,0,1,0,1.59,2.35A2,2,0,0,0,313.87,389.17Z" transform="translate(973.44 395.61)" fill="#f8c527"/><path d="M314.72,389.06l.19-1a.61.61,0,0,0-.52-.68l-.33-.07a.62.62,0,0,0-.74.44l-.19,1Z" transform="translate(973.44 395.61)" fill="#f8c527"/><path d="M313.82,393.69l-.19,1a.62.62,0,0,1-.74.44l-.33-.07a.61.61,0,0,1-.52-.68l.19-1Z" transform="translate(973.44 395.61)" fill="#f8c527"/><path d="M311.31,390l-1-.18a.61.61,0,0,0-.68.52l-.06.33a.62.62,0,0,0,.43.74l1,.18Z" transform="translate(973.44 395.61)" fill="#f8c527"/><path d="M316,390.88l.95.18a.61.61,0,0,1,.44.74l-.06.33a.61.61,0,0,1-.68.52l-1-.18Z" transform="translate(973.44 395.61)" fill="#f8c527"/><path d="M312.83,388.81l-.55-.81a.61.61,0,0,0-.85-.11l-.28.18a.61.61,0,0,0-.21.83l.54.81Z" transform="translate(973.44 395.61)" fill="#f8c527"/><path d="M315.46,392.73l.55.81a.61.61,0,0,1-.21.83l-.28.18a.61.61,0,0,1-.85-.11l-.55-.81Z" transform="translate(973.44 395.61)" fill="#f8c527"/><path d="M311.06,391.87l-.81.54a.61.61,0,0,0-.11.85l.19.28a.6.6,0,0,0,.83.21l.81-.54Z" transform="translate(973.44 395.61)" fill="#f8c527"/><path d="M315,389.23l.81-.55a.61.61,0,0,1,.83.22l.19.28a.6.6,0,0,1-.12.85l-.8.54Z" transform="translate(973.44 395.61)" fill="#f8c527"/><path d="M320.17,398a1.85,1.85,0,1,1,2.17-1.46A1.85,1.85,0,0,1,320.17,398Zm.56-2.89a1.1,1.1,0,0,0-.42,2.15,1.1,1.1,0,0,0,1.29-.87A1.08,1.08,0,0,0,320.73,395.09Z" transform="translate(973.44 395.61)" fill="#f26522"/><path d="M321.31,394.83l.12-.61a.39.39,0,0,0-.34-.44l-.2,0a.4.4,0,0,0-.48.28l-.12.61Z" transform="translate(973.44 395.61)" fill="#f26522"/><path d="M320.73,397.8l-.12.61a.39.39,0,0,1-.47.28l-.21,0a.41.41,0,0,1-.34-.44l.12-.61Z" transform="translate(973.44 395.61)" fill="#f26522"/><path d="M319.13,395.42l-.61-.12a.39.39,0,0,0-.44.33l0,.21a.37.37,0,0,0,.28.47l.61.13Z" transform="translate(973.44 395.61)" fill="#f26522"/><path d="M322.09,396l.62.12a.4.4,0,0,1,.28.47l-.05.21a.38.38,0,0,1-.43.33l-.61-.12Z" transform="translate(973.44 395.61)" fill="#f26522"/><path d="M320.1,394.67l-.35-.51a.4.4,0,0,0-.55-.08l-.17.12a.39.39,0,0,0-.14.53l.35.52Z" transform="translate(973.44 395.61)" fill="#f26522"/><path d="M321.79,397.18l.34.52a.39.39,0,0,1-.13.53l-.18.12a.39.39,0,0,1-.54-.07l-.35-.52Z" transform="translate(973.44 395.61)" fill="#f26522"/><path d="M319,396.63l-.52.35a.39.39,0,0,0-.07.54l.12.18a.39.39,0,0,0,.53.14l.52-.35Z" transform="translate(973.44 395.61)" fill="#f26522"/><path d="M321.48,394.94l.51-.35a.39.39,0,0,1,.53.14l.12.18a.38.38,0,0,1-.07.54l-.52.35Z" transform="translate(973.44 395.61)" fill="#f26522"/><rect x="538.98" y="342.24" width="2.65" height="5.29" transform="translate(874.07 699.27) rotate(-28.86)" fill="#231f20"/><rect x="534.1" y="338.87" width="2.65" height="5.3" transform="translate(875.11 696.28) rotate(-28.84)" fill="#231f20"/><rect x="529.23" y="335.51" width="2.65" height="5.3" transform="translate(876.16 692.94) rotate(-28.79)" fill="#231f20"/><rect x="524.99" y="334.63" width="2.65" height="2.65" transform="translate(876.66 691.2) rotate(-28.84)" fill="#231f20"/><polygon points="1495.64 732.32 1497.96 731.05 1495.4 726.41 1500.04 723.85 1498.77 721.53 1491.81 725.36 1495.64 732.32" fill="#231f20"/><rect x="527.08" y="327.44" width="2.65" height="2.65" transform="translate(880.4 691.16) rotate(-28.83)" fill="#231f20"/><polygon points="1504.92 727.22 1507.23 725.94 1494.46 702.74 1494.46 702.74 1494.43 702.68 1492.11 703.96 1492.14 704.02 1502.36 722.58 1503.64 724.9 1504.92 727.22" fill="#231f20"/><polygon points="1516.05 709 1516.05 709 1516.05 709 1520.68 706.44 1519.41 704.12 1512.45 707.95 1516.28 714.91 1518.6 713.64 1516.05 709" fill="#231f20"/><polygon points="1524.28 707.49 1524.28 707.49 1524.28 707.49 1528.92 704.93 1527.64 702.61 1520.68 706.44 1524.52 713.4 1526.84 712.13 1524.28 707.49" fill="#231f20"/><polygon points="1540.42 725.81 1540.42 725.81 1540.42 725.81 1542.74 724.53 1531.24 703.65 1528.92 704.93 1540.42 725.81" fill="#231f20"/><polygon points="1507.81 710.51 1507.81 710.51 1507.81 710.51 1512.45 707.95 1511.17 705.64 1506.53 708.19 1501.42 698.91 1499.1 700.19 1509.32 718.74 1511.64 717.47 1507.81 710.51" fill="#231f20"/><polygon points="1499.1 700.19 1497.83 697.87 1493.19 700.42 1494.43 702.68 1494.46 702.74 1499.1 700.19" fill="#231f20"/><polygon points="1538.33 733 1539.61 735.32 1539.61 735.32 1521.05 745.54 1518.5 740.9 1516.18 742.18 1520.01 749.14 1543.2 736.37 1540.65 731.73 1538.33 733" fill="#231f20"/><rect x="565.77" y="330.51" width="2.65" height="5.3" transform="translate(883.07 710.64) rotate(-28.85)" fill="#231f20"/><polygon points="1540.65 731.73 1538.1 727.09 1540.42 725.81 1540.42 725.81 1540.42 725.81 1540.42 725.81 1528.92 704.93 1528.92 704.93 1524.28 707.49 1526.84 712.13 1524.52 713.4 1520.68 706.44 1520.68 706.44 1516.05 709 1518.6 713.64 1516.28 714.91 1512.45 707.95 1512.45 707.95 1507.81 710.51 1511.64 717.47 1509.32 718.74 1499.1 700.19 1499.1 700.19 1494.46 702.74 1507.23 725.94 1504.92 727.22 1503.64 724.9 1501.32 726.17 1500.04 723.85 1500.04 723.85 1495.4 726.41 1497.96 731.05 1500.28 729.77 1501.55 732.09 1501.55 732.09 1503.87 730.82 1506.43 735.46 1506.43 735.46 1508.75 734.18 1511.3 738.82 1513.62 737.54 1516.18 742.18 1518.5 740.9 1521.05 745.54 1539.61 735.32 1538.33 733 1540.65 731.73 1540.65 731.73" fill="#fff"/><circle cx="-892.76" cy="-40.09" r="80.68" transform="translate(973.04 307.45) rotate(-5.65)" fill="#fff"/><path d="M-958.61-51.8C-960-39.19-945.18-27.18-925.46-25s36.84-6.24,38.25-18.86-13.44-24.61-33.16-26.81S-957.21-64.41-958.61-51.8Z" transform="translate(973.44 395.61)" fill="#f5aa39"/><path d="M-914.74-40.65a3.38,3.38,0,0,0,3,3.73,3.38,3.38,0,0,0,3.73-3,3.38,3.38,0,0,0-3-3.73A3.38,3.38,0,0,0-914.74-40.65Z" transform="translate(973.44 395.61)" fill="#fff"/><path d="M-927-42a3.4,3.4,0,0,0,3,3.74,3.38,3.38,0,0,0,3.74-3,3.38,3.38,0,0,0-3-3.73A3.38,3.38,0,0,0-927-42Z" transform="translate(973.44 395.61)" fill="#fff"/><path d="M-939.18-43.38a3.38,3.38,0,0,0,3,3.74,3.39,3.39,0,0,0,3.74-3,3.38,3.38,0,0,0-3-3.73A3.37,3.37,0,0,0-939.18-43.38Z" transform="translate(973.44 395.61)" fill="#fff"/><polygon points="47.14 368.39 25.08 375.12 28.24 361.39 47.14 368.39" fill="#f5aa39"/><path d="M-838.77-26.77C-840.18-14.16-857.3-5.71-877-7.91s-34.56-14.2-33.15-26.81,18.52-21.06,38.24-18.86S-837.37-39.38-838.77-26.77Z" transform="translate(973.44 395.61)" fill="#004c50"/><path d="M-884-25.55a3.4,3.4,0,0,1-3.74,3,3.4,3.4,0,0,1-3-3.74,3.38,3.38,0,0,1,3.74-3A3.4,3.4,0,0,1-884-25.55Z" transform="translate(973.44 395.61)" fill="#fff"/><path d="M-871.8-24.19a3.38,3.38,0,0,1-3.74,3,3.38,3.38,0,0,1-3-3.73,3.39,3.39,0,0,1,3.74-3A3.38,3.38,0,0,1-871.8-24.19Z" transform="translate(973.44 395.61)" fill="#fff"/><path d="M-859.58-22.83a3.4,3.4,0,0,1-3.74,3,3.38,3.38,0,0,1-3-3.74,3.36,3.36,0,0,1,3.73-3A3.37,3.37,0,0,1-859.58-22.83Z" transform="translate(973.44 395.61)" fill="#fff"/><polygon points="97.73 385.71 117.78 397.12 117.71 383.04 97.73 385.71" fill="#004c50"/><circle cx="137.09" cy="34.89" r="80.68" transform="translate(988.92 502.77) rotate(-45)" fill="#fff"/><rect x="97.49" y="-5.6" width="82.77" height="81.66" transform="translate(970.29 449.73) rotate(-21.81)" fill="#4b615f"/><rect x="99.4" y="-1.43" width="73.77" height="60.33" transform="translate(972.51 448.3) rotate(-21.81)" fill="#77c4dd"/><polygon points="1129.7 448.85 1095.27 420.44 1089.94 464.76 1129.7 448.85" fill="#4c6da2"/><polygon points="1095.27 420.44 1092.25 445.56 1096.61 446.86 1099.37 438.1 1103.7 441.51 1106.38 435.3 1110.28 436.45 1111.76 434.04 1095.27 420.44" fill="#fff"/><polygon points="1141.03 444.31 1109.16 418.02 1104.23 459.04 1141.03 444.31" fill="#5477b1"/><polyline points="1111.11 444.6 1106.61 439.25 1109.16 418.02 1128.68 434.13 1124.76 432.37 1124.03 435.24 1118.38 433.64 1116.88 437.31 1112.99 438.52 1111.11 444.6" fill="#fff"/><path d="M153.36,6.65a5.76,5.76,0,1,1-7.49-3.2A5.77,5.77,0,0,1,153.36,6.65Z" transform="translate(973.44 395.61)" fill="#f5aa39"/><path d="M100.05,20.87A1.48,1.48,0,0,0,99,18.12a1.48,1.48,0,0,0,1.1,2.75Z" transform="translate(973.44 395.61)" fill="#fff"/><path d="M108.06,30.74A1.48,1.48,0,0,0,107,28a1.48,1.48,0,0,0,1.1,2.75Z" transform="translate(973.44 395.61)" fill="#fff"/><path d="M124.57,19.77a1.48,1.48,0,0,0-1.1-2.75,1.48,1.48,0,0,0,1.1,2.75Z" transform="translate(973.44 395.61)" fill="#fff"/><path d="M137,7.69a1.48,1.48,0,0,0-1.1-2.75A1.48,1.48,0,0,0,137,7.69Z" transform="translate(973.44 395.61)" fill="#fff"/><path d="M137.73,17.28a1.48,1.48,0,0,0-1.1-2.75,1.48,1.48,0,0,0,1.1,2.75Z" transform="translate(973.44 395.61)" fill="#fff"/><path d="M153,23.66a1.48,1.48,0,0,0-1.1-2.75,1.48,1.48,0,0,0,1.1,2.75Z" transform="translate(973.44 395.61)" fill="#fff"/><path d="M153.69,33.17a1.48,1.48,0,0,0-1.1-2.75,1.48,1.48,0,0,0,1.1,2.75Z" transform="translate(973.44 395.61)" fill="#fff"/><path d="M163.53,28.55a1.48,1.48,0,0,0-1.1-2.75,1.48,1.48,0,0,0,1.1,2.75Z" transform="translate(973.44 395.61)" fill="#fff"/><path d="M164.13,14.23a1.48,1.48,0,0,0-1.1-2.74,1.48,1.48,0,0,0,1.1,2.74Z" transform="translate(973.44 395.61)" fill="#fff"/><path d="M158.38-.13a1.48,1.48,0,0,0-1.1-2.74,1.48,1.48,0,0,0,1.1,2.74Z" transform="translate(973.44 395.61)" fill="#fff"/><path d="M113.12,43.38a1.48,1.48,0,0,0-1.1-2.74,1.48,1.48,0,0,0,1.1,2.74Z" transform="translate(973.44 395.61)" fill="#fff"/><path d="M112.63,21.88a1.48,1.48,0,0,0-1.1-2.74,1.48,1.48,0,0,0,1.1,2.74Z" transform="translate(973.44 395.61)" fill="#fff"/><path d="M118.87,11.74A1.48,1.48,0,0,0,117.77,9a1.48,1.48,0,0,0,1.1,2.74Z" transform="translate(973.44 395.61)" fill="#fff"/><circle cx="-615.21" cy="-163.05" r="80.68" transform="translate(978.52 375.05) rotate(-1.91)" fill="#fff"/><rect x="-668.36" y="-197.43" width="106.29" height="68.75" transform="translate(991.39 297.17) rotate(-9.02)" fill="#fdb933"/><polygon points="416.1 258.18 311.12 274.84 358.99 237.37 416.1 258.18" fill="#d1d3d4" style="mix-blend-mode:multiply"/><polygon points="405.33 190.28 300.35 206.93 361.13 250.88 405.33 190.28" fill="#d1d3d4" style="mix-blend-mode:multiply"/><polyline points="300.35 206.93 360.27 245.46 405.33 190.28" fill="#ffc632"/><circle cx="706.86" cy="68" r="80.68" transform="translate(1132.39 915.36) rotate(-45)" fill="#fff"/><path d="M750.39,112.1a2.68,2.68,0,0,1-3,2.26l-94-14a2.69,2.69,0,0,1-2.26-3.06l9.53-63.72a2.68,2.68,0,0,1,3-2.26l94,14.06a2.68,2.68,0,0,1,2.26,3.06Z" transform="translate(973.44 395.61)" fill="#f58437"/><rect x="681.27" y="27.5" width="48.43" height="90.64" transform="translate(1502.6 1155.39) rotate(-81.5)" fill="#fffefe"/><rect x="664.47" y="35.14" width="7.33" height="4.89" transform="translate(1505.5 1088.4) rotate(-81.49)" fill="#fffefe"/><rect x="672.05" y="36.27" width="7.33" height="4.89" transform="translate(1511.16 1096.93) rotate(-81.52)" fill="#fffefe"/><rect x="679.63" y="37.4" width="7.33" height="4.89" transform="translate(1516.45 1105.39) rotate(-81.51)" fill="#fffefe"/><rect x="687.21" y="38.54" width="7.33" height="4.89" transform="translate(1521.49 1113.78) rotate(-81.49)" fill="#fffefe"/><rect x="694.79" y="39.67" width="7.33" height="4.89" transform="translate(1526.86 1122.25) rotate(-81.49)" fill="#fffefe"/><rect x="702.37" y="40.8" width="7.33" height="4.89" transform="translate(1532.14 1130.7) rotate(-81.48)" fill="#fffefe"/><rect x="709.94" y="41.94" width="7.33" height="4.89" transform="matrix(0.15, -0.99, 0.99, 0.15, 1537.81, 1139.23)" fill="#fffefe"/><rect x="717.52" y="43.07" width="7.33" height="4.89" transform="translate(1543.18 1147.7) rotate(-81.51)" fill="#fffefe"/><rect x="725.11" y="44.2" width="7.33" height="4.89" transform="translate(1548.17 1156.09) rotate(-81.49)" fill="#fffefe"/><rect x="732.68" y="45.34" width="7.33" height="4.89" transform="translate(1553.54 1164.56) rotate(-81.49)" fill="#fffefe"/><rect x="740.26" y="46.47" width="7.33" height="4.89" transform="translate(1558.87 1173.02) rotate(-81.49)" fill="#fffefe"/><rect x="747.84" y="47.6" width="7.33" height="4.89" transform="translate(1564.51 1181.55) rotate(-81.51)" fill="#fffefe"/><rect x="655.79" y="93.14" width="7.33" height="4.89" transform="translate(1441.01 1129.32) rotate(-81.51)" fill="#fffefe"/><rect x="663.38" y="94.27" width="7.33" height="4.89" transform="matrix(0.15, -0.99, 0.99, 0.15, 1446.08, 1137.71)" fill="#fffefe"/><rect x="670.96" y="95.41" width="7.33" height="4.89" transform="translate(1451.4 1146.16) rotate(-81.49)" fill="#fffefe"/><rect x="678.53" y="96.54" width="7.33" height="4.89" transform="translate(1456.74 1154.62) rotate(-81.49)" fill="#fffefe"/><rect x="686.11" y="97.67" width="7.33" height="4.89" transform="translate(1462.08 1163.08) rotate(-81.49)" fill="#fffefe"/><rect x="693.69" y="98.81" width="7.33" height="4.89" transform="translate(1468.02 1171.73) rotate(-81.54)" fill="#fffefe"/><rect x="701.27" y="99.94" width="7.33" height="4.89" transform="translate(1472.78 1180.02) rotate(-81.49)" fill="#fffefe"/><rect x="708.85" y="101.07" width="7.33" height="4.89" transform="matrix(0.15, -0.99, 0.99, 0.15, 1478.4, 1188.56)" fill="#fffefe"/><rect x="716.43" y="102.21" width="7.33" height="4.89" transform="matrix(0.15, -0.99, 0.99, 0.15, 1483.73, 1197.02)" fill="#fffefe"/><rect x="724.01" y="103.34" width="7.33" height="4.89" transform="translate(1489.08 1205.49) rotate(-81.51)" fill="#fffefe"/><rect x="731.59" y="104.47" width="7.33" height="4.89" transform="translate(1494.09 1213.85) rotate(-81.49)" fill="#fffefe"/><rect x="739.17" y="105.61" width="7.33" height="4.89" transform="translate(1499.75 1222.41) rotate(-81.51)" fill="#fffefe"/><path d="M699.32,53.45a2,2,0,0,0-1.48,1.62L693,87.55a2,2,0,0,0,3.12,1.88l18.67-13.81a2,2,0,0,0,.41-2.76L701.38,54.19A2,2,0,0,0,699.32,53.45Z" transform="translate(973.44 395.61)" fill="#f26522"/><circle cx="791.36" cy="287.91" r="80.68" transform="translate(1001.64 1039.52) rotate(-45)" fill="#fff"/><path d="M827.17,320.68a53.15,53.15,0,1,0-14.43,11.84l24.86,10.55Z" transform="translate(973.44 395.61)" fill="#f5aa39"/><path d="M831.79,286A45.06,45.06,0,1,1,786.73,241,45.06,45.06,0,0,1,831.79,286Z" transform="translate(973.44 395.61)" fill="#fff"/><path d="M767.74,261.4l2.5,12.52c.19.94.33,1.61.43,2a2.55,2.55,0,0,0,.33.87,1.38,1.38,0,0,0,.57.48v3.42H764v-3.42a.93.93,0,0,0,.65-1,3.48,3.48,0,0,0,0-.63h-2.91s0,.24-.11.63a1,1,0,0,0,.83,1v3.42h-6.64v-3.42a1.71,1.71,0,0,0,.54-.81,7.75,7.75,0,0,0,.34-1.4l2.54-13.67Zm-3.69,10.49-1-5.72,0,0-.92,5.74Z" transform="translate(973.44 395.61)" fill="#f58437"/><path d="M805.58,263.79a1.16,1.16,0,0,1-1.15,1.15H774.12a1.15,1.15,0,0,1-1.14-1.15h0a1.15,1.15,0,0,1,1.14-1.15h30.31a1.16,1.16,0,0,1,1.15,1.15Z" transform="translate(973.44 395.61)" fill="#004c50"/><path d="M821,263.79a1.15,1.15,0,0,1-1.14,1.15h-11a1.15,1.15,0,0,1-1.15-1.15h0a1.15,1.15,0,0,1,1.15-1.15h11a1.15,1.15,0,0,1,1.14,1.15Z" transform="translate(973.44 395.61)" fill="#004c50"/><path d="M783.3,267.89a1.15,1.15,0,0,1-1.15,1.14h-8a1.14,1.14,0,0,1-1.14-1.14h0a1.14,1.14,0,0,1,1.14-1.15h8a1.15,1.15,0,0,1,1.15,1.15Z" transform="translate(973.44 395.61)" fill="#004c50"/><path d="M801.56,267.89a1.14,1.14,0,0,1-1.14,1.14H786.33a1.14,1.14,0,0,1-1.15-1.14h0a1.14,1.14,0,0,1,1.15-1.15h14.09a1.14,1.14,0,0,1,1.14,1.15Z" transform="translate(973.44 395.61)" fill="#004c50"/><path d="M821,267.89a1.14,1.14,0,0,1-1.14,1.14H804.61a1.15,1.15,0,0,1-1.15-1.14h0a1.15,1.15,0,0,1,1.15-1.15h15.24a1.14,1.14,0,0,1,1.14,1.15Z" transform="translate(973.44 395.61)" fill="#004c50"/><path d="M788.39,271.74a1.14,1.14,0,0,0,1.15,1.14h30.3a1.14,1.14,0,0,0,1.15-1.14h0a1.14,1.14,0,0,0-1.15-1.15h-30.3a1.14,1.14,0,0,0-1.15,1.15Z" transform="translate(973.44 395.61)" fill="#004c50"/><path d="M773,271.74a1.14,1.14,0,0,0,1.14,1.14h11a1.15,1.15,0,0,0,1.15-1.14h0a1.15,1.15,0,0,0-1.15-1.15h-11a1.14,1.14,0,0,0-1.14,1.15Z" transform="translate(973.44 395.61)" fill="#004c50"/><path d="M810.67,275.83a1.15,1.15,0,0,0,1.15,1.15h8a1.15,1.15,0,0,0,1.15-1.15h0a1.14,1.14,0,0,0-1.15-1.14h-8a1.14,1.14,0,0,0-1.15,1.14Z" transform="translate(973.44 395.61)" fill="#004c50"/><path d="M792.4,275.83a1.16,1.16,0,0,0,1.15,1.15h14.09a1.16,1.16,0,0,0,1.15-1.15h0a1.15,1.15,0,0,0-1.15-1.14H793.55a1.15,1.15,0,0,0-1.15,1.14Z" transform="translate(973.44 395.61)" fill="#004c50"/><path d="M773,275.83a1.15,1.15,0,0,0,1.14,1.15h15.24a1.15,1.15,0,0,0,1.14-1.15h0a1.14,1.14,0,0,0-1.14-1.14H774.12a1.14,1.14,0,0,0-1.14,1.14Z" transform="translate(973.44 395.61)" fill="#004c50"/><path d="M805.58,279.68a1.16,1.16,0,0,1-1.15,1.15H774.12a1.15,1.15,0,0,1-1.14-1.15h0a1.15,1.15,0,0,1,1.14-1.15h30.31a1.16,1.16,0,0,1,1.15,1.15Z" transform="translate(973.44 395.61)" fill="#004c50"/><path d="M821,279.68a1.15,1.15,0,0,1-1.14,1.15h-11a1.15,1.15,0,0,1-1.15-1.15h0a1.15,1.15,0,0,1,1.15-1.15h11a1.15,1.15,0,0,1,1.14,1.15Z" transform="translate(973.44 395.61)" fill="#004c50"/><path d="M783.3,283.78a1.15,1.15,0,0,1-1.15,1.14H767a1.14,1.14,0,0,1-1.15-1.14h0a1.14,1.14,0,0,1,1.15-1.15h15.11a1.15,1.15,0,0,1,1.15,1.15Z" transform="translate(973.44 395.61)" fill="#004c50"/><path d="M801.56,283.78a1.14,1.14,0,0,1-1.14,1.14H786.33a1.14,1.14,0,0,1-1.15-1.14h0a1.14,1.14,0,0,1,1.15-1.15h14.09a1.14,1.14,0,0,1,1.14,1.15Z" transform="translate(973.44 395.61)" fill="#004c50"/><path d="M821,283.78a1.14,1.14,0,0,1-1.14,1.14H804.61a1.15,1.15,0,0,1-1.15-1.14h0a1.15,1.15,0,0,1,1.15-1.15h15.24a1.14,1.14,0,0,1,1.14,1.15Z" transform="translate(973.44 395.61)" fill="#004c50"/><path d="M805.58,287.67a1.15,1.15,0,0,1-1.15,1.14H767a1.14,1.14,0,0,1-1.15-1.14h0a1.14,1.14,0,0,1,1.15-1.15h37.39a1.15,1.15,0,0,1,1.15,1.15Z" transform="translate(973.44 395.61)" fill="#004c50"/><path d="M821,287.67a1.14,1.14,0,0,1-1.14,1.14h-11a1.14,1.14,0,0,1-1.15-1.14h0a1.14,1.14,0,0,1,1.15-1.15h11a1.14,1.14,0,0,1,1.14,1.15Z" transform="translate(973.44 395.61)" fill="#004c50"/><path d="M783.3,291.76a1.15,1.15,0,0,1-1.15,1.15H756.66a1.15,1.15,0,0,1-1.15-1.15h0a1.15,1.15,0,0,1,1.15-1.14h25.49a1.15,1.15,0,0,1,1.15,1.14Z" transform="translate(973.44 395.61)" fill="#004c50"/><path d="M801.56,291.76a1.14,1.14,0,0,1-1.14,1.15H786.33a1.14,1.14,0,0,1-1.15-1.15h0a1.14,1.14,0,0,1,1.15-1.14h14.09a1.14,1.14,0,0,1,1.14,1.14Z" transform="translate(973.44 395.61)" fill="#004c50"/><path d="M821,291.76a1.14,1.14,0,0,1-1.14,1.15H804.61a1.15,1.15,0,0,1-1.15-1.15h0a1.15,1.15,0,0,1,1.15-1.14h15.24a1.14,1.14,0,0,1,1.14,1.14Z" transform="translate(973.44 395.61)" fill="#004c50"/><path d="M788.39,295.61a1.14,1.14,0,0,0,1.15,1.15h30.3a1.14,1.14,0,0,0,1.15-1.15h0a1.15,1.15,0,0,0-1.15-1.15h-30.3a1.15,1.15,0,0,0-1.15,1.15Z" transform="translate(973.44 395.61)" fill="#004c50"/><path d="M755.51,295.61a1.15,1.15,0,0,0,1.15,1.15h28.45a1.15,1.15,0,0,0,1.15-1.15h0a1.16,1.16,0,0,0-1.15-1.15H756.66a1.16,1.16,0,0,0-1.15,1.15Z" transform="translate(973.44 395.61)" fill="#004c50"/><path d="M810.67,299.71a1.14,1.14,0,0,0,1.15,1.14h8a1.14,1.14,0,0,0,1.15-1.14h0a1.14,1.14,0,0,0-1.15-1.15h-8a1.14,1.14,0,0,0-1.15,1.15Z" transform="translate(973.44 395.61)" fill="#004c50"/><path d="M792.4,299.71a1.15,1.15,0,0,0,1.15,1.14h14.09a1.15,1.15,0,0,0,1.15-1.14h0a1.15,1.15,0,0,0-1.15-1.15H793.55a1.15,1.15,0,0,0-1.15,1.15Z" transform="translate(973.44 395.61)" fill="#004c50"/><path d="M765.89,299.71a1.14,1.14,0,0,0,1.15,1.14h22.32a1.14,1.14,0,0,0,1.14-1.14h0a1.14,1.14,0,0,0-1.14-1.15H767a1.14,1.14,0,0,0-1.15,1.15Z" transform="translate(973.44 395.61)" fill="#004c50"/><path d="M805.58,303.56a1.15,1.15,0,0,1-1.15,1.14h-48a1.15,1.15,0,0,1-1.15-1.14h0a1.15,1.15,0,0,1,1.15-1.15h48a1.15,1.15,0,0,1,1.15,1.15Z" transform="translate(973.44 395.61)" fill="#004c50"/><path d="M821,303.56a1.14,1.14,0,0,1-1.14,1.14h-11a1.14,1.14,0,0,1-1.15-1.14h0a1.14,1.14,0,0,1,1.15-1.15h11a1.14,1.14,0,0,1,1.14,1.15Z" transform="translate(973.44 395.61)" fill="#004c50"/><path d="M783.3,307.65a1.16,1.16,0,0,1-1.15,1.15H767a1.15,1.15,0,0,1-1.15-1.15h0A1.15,1.15,0,0,1,767,306.5h15.11a1.16,1.16,0,0,1,1.15,1.15Z" transform="translate(973.44 395.61)" fill="#004c50"/><path d="M801.56,307.65a1.15,1.15,0,0,1-1.14,1.15H786.33a1.15,1.15,0,0,1-1.15-1.15h0a1.15,1.15,0,0,1,1.15-1.15h14.09a1.15,1.15,0,0,1,1.14,1.15Z" transform="translate(973.44 395.61)" fill="#004c50"/><path d="M764.85,307.65a1.15,1.15,0,0,1-1.14,1.15h-7.05a1.16,1.16,0,0,1-1.15-1.15h0a1.16,1.16,0,0,1,1.15-1.15h7.05a1.15,1.15,0,0,1,1.14,1.15Z" transform="translate(973.44 395.61)" fill="#004c50"/><path d="M764.85,287.67a1.14,1.14,0,0,1-1.14,1.14h-7.05a1.15,1.15,0,0,1-1.15-1.14h0a1.15,1.15,0,0,1,1.15-1.15h7.05a1.14,1.14,0,0,1,1.14,1.15Z" transform="translate(973.44 395.61)" fill="#004c50"/><path d="M764.85,299.71a1.14,1.14,0,0,1-1.14,1.14h-7.05a1.15,1.15,0,0,1-1.15-1.14h0a1.15,1.15,0,0,1,1.15-1.15h7.05a1.14,1.14,0,0,1,1.14,1.15Z" transform="translate(973.44 395.61)" fill="#004c50"/><path d="M764.85,283.78a1.14,1.14,0,0,1-1.14,1.14h-7.05a1.15,1.15,0,0,1-1.15-1.14h0a1.15,1.15,0,0,1,1.15-1.15h7.05a1.14,1.14,0,0,1,1.14,1.15Z" transform="translate(973.44 395.61)" fill="#004c50"/><path d="M821,307.65a1.15,1.15,0,0,1-1.14,1.15H804.61a1.16,1.16,0,0,1-1.15-1.15h0a1.16,1.16,0,0,1,1.15-1.15h15.24a1.15,1.15,0,0,1,1.14,1.15Z" transform="translate(973.44 395.61)" fill="#004c50"/></g></svg>