<svg xmlns="http://www.w3.org/2000/svg" width="800" height="506" viewBox="0 0 800 506"><rect width="800" height="506" fill="#e05c26"/><circle cx="409.2" cy="252.52" r="249.44" transform="translate(-58.7 363.31) rotate(-45)" fill="#fff"/><path d="M540.89,220.33a73.31,73.31,0,0,0,106.36-61.4H609.56a35.71,35.71,0,0,1-49.82,28.75Z" fill="#3184c6" fill-rule="evenodd"/><path d="M570.09,81.77A73.3,73.3,0,0,0,534,216.36l18.85-32.64a35.72,35.72,0,0,1,17.2-64.26Z" fill="#fdbe5a" fill-rule="evenodd"/><path d="M635.47,114.93A73.27,73.27,0,0,0,578,81.77v37.69a35.73,35.73,0,0,1,24.79,14.32Z" fill="#2ab999" fill-rule="evenodd"/><path d="M647.25,151a72.86,72.86,0,0,0-7.81-29.19l-32.65,18.84A35.58,35.58,0,0,1,609.56,151Z" fill="#f68a32" fill-rule="evenodd"/><path d="M196.84,190.05,151,177.76a47.51,47.51,0,0,1,45.88-35.19Z" fill="#f68a32" fill-rule="evenodd"/><path d="M202.34,197.65V150.17a47.44,47.44,0,1,1-45.88,35.19Z" fill="#fdbe5a" fill-rule="evenodd"/><path d="M232.63,389.83H586.15a11.22,11.22,0,0,0,11.19-11.19V356.1H221.44v22.54A11.23,11.23,0,0,0,232.63,389.83Z" fill="#c4cdda" fill-rule="evenodd"/><path d="M232.63,133.07H586.16a11.22,11.22,0,0,1,11.18,11.19V357.38H221.44V144.26A11.23,11.23,0,0,1,232.63,133.07Z" fill="#414e61" fill-rule="evenodd"/><rect x="358.75" y="389.83" width="101.28" height="34.27" fill="#c4cdda"/><path d="M406.25,423.12h85c2.55,0,4.63,1.68,4.63,3.73v5.95H322.92v-5.95c0-2.05,2.09-3.73,4.63-3.73h78.7Z" fill="#c4cdda" fill-rule="evenodd"/><polygon points="358.75 389.83 460.03 389.83 460.03 397.47 406.86 423.12 358.75 423.12 358.75 389.83" fill="#a6b0be" fill-rule="evenodd"/><rect x="322.92" y="428.58" width="172.94" height="4.22" fill="#a6b0be"/><rect x="237.11" y="148.74" width="344.57" height="192.98" fill="#fff"/><rect x="237.11" y="341.72" width="344.57" height="15.66" fill="#414e61"/><rect x="280.18" y="279.45" width="21.54" height="62.27" fill="#59a4da"/><rect x="301.71" y="265.25" width="21.54" height="76.46" fill="#3184c6"/><rect x="344.78" y="280.84" width="21.54" height="60.88" fill="#3184c6"/><rect x="366.32" y="263.71" width="21.54" height="78.01" fill="#59a4da"/><rect x="387.86" y="250.15" width="21.53" height="91.57" fill="#3184c6"/><rect x="258.64" y="307.81" width="21.53" height="33.91" fill="#3184c6"/><rect x="323.25" y="292.71" width="21.54" height="49.01" fill="#59a4da"/><rect x="430.93" y="261.76" width="21.54" height="79.96" fill="#3184c6"/><rect x="452.47" y="242.96" width="21.54" height="98.76" fill="#59a4da"/><rect x="409.39" y="226.17" width="21.54" height="115.55" fill="#59a4da"/><rect x="538.61" y="227.19" width="21.54" height="114.53" fill="#59a4da"/><rect x="495.54" y="236.09" width="21.54" height="105.63" fill="#59a4da"/><rect x="474" y="221.34" width="21.54" height="120.38" fill="#3184c6"/><rect x="517.07" y="217.01" width="21.53" height="124.7" fill="#3184c6"/><rect x="237.11" y="300.3" width="21.53" height="41.42" fill="#59a4da"/><rect x="560.14" y="207.98" width="21.54" height="133.74" fill="#3184c6"/><path d="M449.4,182.51a65.65,65.65,0,1,0,65.65,65.65A65.77,65.77,0,0,0,449.4,182.51Z" fill="#fff" fill-rule="evenodd"/><path d="M415.4,258.53h33.31v55.26a65.42,65.42,0,0,1-33.31-9.47Z" fill="#3184c6" fill-rule="evenodd"/><path d="M448.71,229.48H482v75.66a65.36,65.36,0,0,1-32.62,8.66h-.69Z" fill="#59a4da" fill-rule="evenodd"/><path d="M401.24,203.57H415.4V304.32a65.64,65.64,0,0,1-14.16-100.75Z" fill="#59a4da" fill-rule="evenodd"/><path d="M489.4,196.1H482v109a65.66,65.66,0,0,0,7.38-109Z" fill="#3184c6" fill-rule="evenodd"/><path d="M390.61,189.36a83.15,83.15,0,1,1,0,117.59,83.15,83.15,0,0,1,0-117.59ZM403,201.74a65.64,65.64,0,1,0,92.83,0A65.63,65.63,0,0,0,403,201.74Z" fill="#414e61" fill-rule="evenodd"/><rect x="517.51" y="290.98" width="17.98" height="68.56" transform="translate(-75.78 467.56) rotate(-45)" fill="#414e61"/><path d="M531.76,310.14l70.91,70.91a2.48,2.48,0,0,1,0,3.48l-16.89,16.89a2.48,2.48,0,0,1-3.48,0l-70.91-70.91a2.47,2.47,0,0,1,0-3.48l16.89-16.89A2.48,2.48,0,0,1,531.76,310.14Z" fill="#fdbe5a" fill-rule="evenodd"/><path d="M531.1,309.48l72.22,72.23c.6.59.3,1.86-.65,2.82l-4.2,4.19-74.38-74.38,4.19-4.2C529.24,309.19,530.51,308.89,531.1,309.48Z" fill="#ffd363" fill-rule="evenodd"/><path d="M537.45,315.83l3.4,3.4L520.48,339.6l-3.4-3.4,20.37-20.37ZM593.57,372l3.41,3.4-20.37,20.37-3.4-3.4Z" fill="#fff" fill-rule="evenodd"/><rect x="251.76" y="163.39" width="23.4" height="23.4" fill="#f68a32"/><rect x="283.8" y="173.63" width="71.01" height="13.15" fill="#a6b0be"/><rect x="251.76" y="198.37" width="23.4" height="23.4" fill="#f68a32"/><rect x="283.8" y="208.62" width="71.01" height="13.15" fill="#a6b0be"/><path d="M639.36,292.8h0a3.41,3.41,0,0,1,3.4,3.4v2.48h2.49a3.41,3.41,0,0,1,3.4,3.4h0a3.41,3.41,0,0,1-3.4,3.4h-2.49V308a3.41,3.41,0,0,1-3.4,3.4h0A3.41,3.41,0,0,1,636,308v-2.49h-2.48a3.41,3.41,0,0,1-3.4-3.4h0a3.41,3.41,0,0,1,3.4-3.4H636V296.2A3.41,3.41,0,0,1,639.36,292.8Z" fill="#f68a32" fill-rule="evenodd"/><path d="M189.36,279.3h0a3.55,3.55,0,0,1,3.54,3.54v2.58h2.59A3.55,3.55,0,0,1,199,289h0a3.55,3.55,0,0,1-3.54,3.54H192.9v2.59a3.55,3.55,0,0,1-3.54,3.54h0a3.56,3.56,0,0,1-3.54-3.54V292.5h-2.58A3.55,3.55,0,0,1,179.7,289h0a3.55,3.55,0,0,1,3.54-3.54h2.58v-2.58A3.55,3.55,0,0,1,189.36,279.3Z" fill="#2ab999" fill-rule="evenodd"/><path d="M339.27,38.66h0a4.49,4.49,0,0,1,4.48,4.49v3.27H347a4.5,4.5,0,0,1,4.48,4.48h0A4.5,4.5,0,0,1,347,55.39h-3.28v3.27a4.49,4.49,0,0,1-4.48,4.48h0a4.49,4.49,0,0,1-4.48-4.48V55.39h-3.28A4.5,4.5,0,0,1,327,50.9h0a4.5,4.5,0,0,1,4.48-4.48h3.28V43.15A4.49,4.49,0,0,1,339.27,38.66Z" fill="#3184c6" fill-rule="evenodd"/><path d="M282.65,117.09c9.53,2.78,23.64-3.36,37.75-9.5,15.87-6.9,31.75-13.8,44.5-9.94,11.92,3.61,20,8.42,29.66,14.19a256,256,0,0,0,35.27,18.22c13.15,5.51,28.58-17,44.62-40.44C492.68,63,511.58,35.41,533.68,37l-3,15.13C515,51,498.57,75,482.69,98.23c-19.2,28-37.68,55-58.43,46.31A261.8,261.8,0,0,1,388,125.84c-9.29-5.54-17-10.16-27.86-13.44-9.54-2.89-23.74,3.29-37.93,9.46-15.77,6.86-31.54,13.71-44.23,10Z" fill="#fdbe5a" fill-rule="evenodd"/><path d="M432.59,119.67a18.48,18.48,0,1,1-23.17,12.09A18.48,18.48,0,0,1,432.59,119.67Z" fill="#f68a32" fill-rule="evenodd"/><path d="M429.77,128.64a9.08,9.08,0,1,1-11.39,5.94A9.07,9.07,0,0,1,429.77,128.64Z" fill="#fff" fill-rule="evenodd"/><path d="M537.73,26.92A18.48,18.48,0,1,1,514.56,39,18.48,18.48,0,0,1,537.73,26.92Z" fill="#f68a32" fill-rule="evenodd"/><path d="M534.92,35.89a9.08,9.08,0,1,1-11.39,5.94A9.09,9.09,0,0,1,534.92,35.89Z" fill="#fff" fill-rule="evenodd"/><path d="M368,87.4a18.48,18.48,0,1,1-23.17,12.08A18.47,18.47,0,0,1,368,87.4Z" fill="#f68a32" fill-rule="evenodd"/><path d="M365.22,96.36a9.08,9.08,0,1,1-11.39,5.94A9.07,9.07,0,0,1,365.22,96.36Z" fill="#fff" fill-rule="evenodd"/><path d="M285.83,106.85a18.48,18.48,0,1,1-23.17,12.09A18.48,18.48,0,0,1,285.83,106.85Z" fill="#f68a32" fill-rule="evenodd"/><path d="M283,115.81a9.09,9.09,0,1,1-11.39,6A9.08,9.08,0,0,1,283,115.81Z" fill="#fff" fill-rule="evenodd"/><path d="M194.89,329.84h97.23a9.15,9.15,0,0,1,9.12,9.11V366.3H185.77V339A9.15,9.15,0,0,1,194.89,329.84Z" fill="#414e61" fill-rule="evenodd"/><path d="M294.25,339.33v17.86a2.13,2.13,0,0,1-2.13,2.12H194.89a2.13,2.13,0,0,1-2.13-2.12V339a2.13,2.13,0,0,1,2.13-2.12h97.23a2.13,2.13,0,0,1,2.13,2.12Z" fill="#fff" fill-rule="evenodd"/><rect x="282.97" y="342.5" width="6.84" height="13.22" fill="#414e61"/><rect x="269.29" y="342.5" width="6.84" height="13.22" fill="#414e61"/><rect x="255.62" y="342.5" width="6.84" height="13.22" fill="#414e61"/><rect x="243.51" y="366.3" width="57.73" height="39.5" fill="#3184c6"/><rect x="185.78" y="366.3" width="57.73" height="39.5" fill="#2ab999"/><path d="M194.76,445.3h48.75V405.8H185.78v30.51A9,9,0,0,0,194.76,445.3Z" fill="#fdbe5a" fill-rule="evenodd"/><path d="M292.25,445.3H243.51V405.8h57.73v30.51A9,9,0,0,1,292.25,445.3Z" fill="#f68a32" fill-rule="evenodd"/><rect x="259.21" y="383.01" width="26.33" height="6.08" transform="translate(-193.21 305.68) rotate(-45)" fill="#414e61"/><rect x="269.33" y="372.89" width="6.08" height="26.33" transform="translate(-193.2 305.67) rotate(-45)" fill="#414e61"/><rect x="201.48" y="422.51" width="26.33" height="6.08" fill="#414e61"/><path d="M259.21,428.59h26.32v6.08H259.21v-6.08Zm0-12.15h26.32v6.07H259.21Z" fill="#fff" fill-rule="evenodd"/><rect x="211.41" y="372.89" width="6.08" height="26.33" fill="#fff"/><rect x="201.48" y="383.01" width="26.33" height="6.08" fill="#fff"/><path d="M474.3,452.46h0a4.49,4.49,0,0,1,4.48,4.48v3.28h3.28a4.49,4.49,0,0,1,4.48,4.48h0a4.5,4.5,0,0,1-4.48,4.48h-3.28v3.28a4.49,4.49,0,0,1-4.48,4.48h0a4.5,4.5,0,0,1-4.48-4.48v-3.28h-3.28a4.5,4.5,0,0,1-4.48-4.48h0a4.49,4.49,0,0,1,4.48-4.48h3.28v-3.28A4.5,4.5,0,0,1,474.3,452.46Z" fill="#a6b0be" fill-rule="evenodd"/></svg>