<svg xmlns="http://www.w3.org/2000/svg" width="799.18" height="507.88" viewBox="0 0 799.18 507.88"><rect width="799.18" height="506" fill="#21a5de"/><rect x="182.28" y="76.52" width="437.66" height="235.03" transform="translate(-0.6 -0.45) rotate(0.06)" fill="#333"/><rect x="199.5" y="90.89" width="403.21" height="204.24" transform="translate(-0.6 -0.45) rotate(0.06)" fill="#23b9d6"/><rect x="199.6" y="90.89" width="403.21" height="15.91" transform="translate(-0.71 -0.45) rotate(0.06)" fill="#fff"/><rect x="274.14" y="311.42" width="28.43" height="16.42" transform="matrix(1, 0, 0, 1, -0.46, -0.32)" fill="#333"/><rect x="493.82" y="311.67" width="28.43" height="16.42" transform="matrix(1, 0, 0, 1, -0.46, -0.57)" fill="#333"/><polygon points="526.31 322.47 527.34 328.86 489.1 328.81 488.38 322.43 306.37 322.22 305.59 328.61 267.35 328.56 268.44 322.18 181.31 322.08 128.64 507.27 671.24 507.88 618.97 322.57 526.31 322.47" fill="#333"/><polygon points="230.44 340.11 196.23 340.07 197.47 335.27 231.47 335.31 230.44 340.11" fill="#fff"/><polygon points="271.9 340.15 237.69 340.11 238.68 335.32 272.69 335.36 271.9 340.15" fill="#fff"/><polygon points="313.37 340.2 279.16 340.16 279.9 335.37 313.9 335.41 313.37 340.2" fill="#fff"/><polygon points="354.83 340.25 320.63 340.21 321.11 335.41 355.12 335.45 354.83 340.25" fill="#fff"/><polygon points="396.3 340.29 362.09 340.25 362.33 335.46 396.33 335.5 396.3 340.29" fill="#fff"/><polygon points="437.77 340.34 403.56 340.3 403.54 335.51 437.55 335.55 437.77 340.34" fill="#fff"/><polygon points="479.24 340.39 445.02 340.35 444.76 335.55 478.76 335.59 479.24 340.39" fill="#fff"/><polygon points="520.7 340.43 486.49 340.39 485.97 335.6 519.98 335.64 520.7 340.43" fill="#fff"/><polygon points="562.17 340.48 527.96 340.44 527.19 335.65 561.19 335.69 562.17 340.48" fill="#fff"/><polygon points="603.63 340.53 569.42 340.49 568.4 335.69 602.4 335.73 603.63 340.53" fill="#fff"/><path d="M219.51,358.29l-25.72,0c-.8,0-1.36-.39-1.23-.87l3.17-12.24c.12-.47.86-.84,1.65-.84l25.27,0c.8,0,1.35.38,1.25.84l-2.74,12.24C221.05,357.9,220.31,358.29,219.51,358.29Z" transform="translate(-0.82)" fill="#fff"/><path d="M252.39,358.32l-25.72,0c-.81,0-1.38-.39-1.27-.87l2.67-12.25c.1-.46.83-.83,1.62-.83l25.27,0c.79,0,1.37.37,1.28.84L254,357.46C253.91,357.94,253.19,358.33,252.39,358.32Z" transform="translate(-0.82)" fill="#fff"/><path d="M278.27,376.75l-26.3,0c-.82,0-1.42-.41-1.33-.91L253,363c.09-.49.81-.88,1.62-.88l25.84,0c.81,0,1.41.39,1.34.88l-1.89,12.8C279.82,376.34,279.1,376.75,278.27,376.75Z" transform="translate(-0.82)" fill="#fff"/><path d="M288.18,395.83l-26.9,0c-.85,0-1.46-.43-1.37-.95l2.25-13.39c.08-.51.82-.92,1.65-.92l26.42,0c.83,0,1.45.41,1.38.92l-1.77,13.39C289.77,395.41,289,395.83,288.18,395.83Z" transform="translate(-0.82)" fill="#fff"/><path d="M294.1,416.36l-27.57,0c-.86,0-1.49-.44-1.4-1l2.22-14.05c.08-.53.83-1,1.68-1l27.05,0c.85,0,1.49.44,1.42,1l-1.72,14C295.71,415.91,295,416.36,294.1,416.36Z" transform="translate(-0.82)" fill="#fff"/><path d="M200.86,437.79l-28.25,0c-.88,0-1.48-.47-1.33-1.05L175.11,422a1.89,1.89,0,0,1,1.84-1l27.71,0c.86,0,1.47.45,1.34,1l-3.31,14.75A1.84,1.84,0,0,1,200.86,437.79Z" transform="translate(-0.82)" fill="#fff"/><path d="M236,437.83l-28.25,0c-.89,0-1.5-.47-1.37-1.05L209.58,422c.12-.56.92-1,1.79-1l27.71,0c.87,0,1.49.45,1.39,1l-2.73,14.74C237.63,437.36,236.83,437.83,236,437.83Z" transform="translate(-0.82)" fill="#fff"/><path d="M271,437.87l-28.25,0c-.89,0-1.52-.47-1.41-1L244,422c.1-.55.89-1,1.76-1l27.71,0c.87,0,1.5.45,1.42,1l-2.14,14.74C272.7,437.4,271.92,437.87,271,437.87Z" transform="translate(-0.82)" fill="#fff"/><path d="M488.12,438.11l-28.24,0c-.89,0-1.63-.47-1.67-1.05l-.94-14.75c0-.55.64-1,1.51-1l27.71,0c.87,0,1.62.45,1.67,1l1.46,14.75C489.68,437.65,489,438.11,488.12,438.11Z" transform="translate(-0.82)" fill="#fff"/><path d="M523.36,438.15l-28.25,0c-.88,0-1.65-.47-1.71-1.05l-1.52-14.75c-.06-.55.6-1,1.47-1l27.71,0c.87,0,1.63.45,1.71,1l2.05,14.75C524.9,437.69,524.24,438.15,523.36,438.15Z" transform="translate(-0.82)" fill="#fff"/><path d="M558.59,438.19l-28.24,0c-.89,0-1.67-.47-1.75-1.05l-2.11-14.75c-.08-.56.56-1,1.43-1l27.71,0c.87,0,1.65.45,1.75,1L560,437.15C560.11,437.73,559.48,438.19,558.59,438.19Z" transform="translate(-0.82)" fill="#fff"/><path d="M593.83,438.23l-28.25,0c-.88,0-1.68-.47-1.79-1.05L561.1,422.4c-.1-.56.52-1,1.39-1l27.71,0c.87,0,1.67.45,1.79,1l3.21,14.75C595.33,437.76,594.71,438.23,593.83,438.23Z" transform="translate(-0.82)" fill="#fff"/><path d="M629.06,438.27l-28.24,0a1.84,1.84,0,0,1-1.84-1.05l-3.27-14.75c-.13-.56.48-1,1.34-1l27.72,0a1.9,1.9,0,0,1,1.83,1l3.8,14.75C630.55,437.8,630,438.27,629.06,438.27Z" transform="translate(-0.82)" fill="#fff"/><path d="M329,416.4l-27.56,0c-.86,0-1.51-.44-1.44-1l1.65-14.05c.06-.53.8-1,1.65-1l27.05,0c.85,0,1.5.43,1.45,1l-1.15,14C330.64,416,329.91,416.4,329,416.4Z" transform="translate(-0.82)" fill="#fff"/><path d="M364,416.43l-27.56,0c-.86,0-1.53-.44-1.48-1L336,401.36c0-.53.76-1,1.61-1l27.05,0c.85,0,1.52.43,1.5,1l-.59,14.05C365.58,416,364.86,416.44,364,416.43Z" transform="translate(-0.82)" fill="#fff"/><path d="M398.94,416.47l-27.56,0c-.86,0-1.55-.44-1.52-1l.51-14.05c0-.53.73-1,1.57-1l27.06,0c.84,0,1.53.43,1.53,1l0,14.05C400.51,416,399.81,416.47,398.94,416.47Z" transform="translate(-0.82)" fill="#fff"/><path d="M433.89,416.51l-27.56,0c-.86,0-1.56-.45-1.57-1l0-14.05c0-.53.68-1,1.53-1l27.05,0c.85,0,1.55.43,1.57,1l.55,14C435.44,416.07,434.75,416.51,433.89,416.51Z" transform="translate(-0.82)" fill="#fff"/><path d="M468.84,416.55l-27.56,0c-.86,0-1.58-.45-1.61-1l-.61-14c0-.54.64-1,1.49-1l27.05,0c.85,0,1.57.43,1.61,1l1.11,14.05C470.37,416.11,469.7,416.55,468.84,416.55Z" transform="translate(-0.82)" fill="#fff"/><path d="M503.79,416.59l-27.56,0c-.86,0-1.6-.45-1.65-1l-1.18-14.05c0-.53.61-1,1.45-.95l27.06,0c.84,0,1.58.43,1.65,1l1.67,14.05C505.3,416.15,504.65,416.59,503.79,416.59Z" transform="translate(-0.82)" fill="#fff"/><path d="M538.74,416.63l-27.56,0c-.87,0-1.62-.45-1.69-1l-1.75-14.05c-.06-.53.57-1,1.42-1l27.05,0c.85,0,1.6.44,1.69,1l2.24,14.05C540.23,416.19,539.6,416.63,538.74,416.63Z" transform="translate(-0.82)" fill="#fff"/><path d="M322.58,395.87l-26.91,0c-.84,0-1.47-.43-1.4-.95l1.7-13.4c.07-.5.79-.91,1.62-.91l26.42,0c.83,0,1.46.41,1.42.92l-1.23,13.39C324.15,395.45,323.43,395.87,322.58,395.87Z" transform="translate(-0.82)" fill="#fff"/><path d="M357,395.91l-26.91,0c-.84,0-1.49-.43-1.44-.95l1.16-13.4c0-.5.75-.91,1.58-.91l26.42,0c.83,0,1.48.41,1.45.92L358.56,395C358.53,395.49,357.83,395.91,357,395.91Z" transform="translate(-0.82)" fill="#fff"/><path d="M391.38,396l-26.91,0c-.84,0-1.5-.43-1.48-.95l.62-13.4c0-.51.71-.92,1.54-.91l26.42,0c.83,0,1.49.41,1.49.91l-.14,13.4C392.91,395.52,392.22,396,391.38,396Z" transform="translate(-0.82)" fill="#fff"/><path d="M425.78,396l-26.91,0c-.84,0-1.52-.43-1.52-.95l.07-13.4c0-.51.68-.92,1.51-.92l26.42,0c.83,0,1.51.42,1.52.92l.41,13.4C427.29,395.56,426.62,396,425.78,396Z" transform="translate(-0.82)" fill="#fff"/><path d="M460.18,396l-26.91,0c-.84,0-1.54-.42-1.56-.95l-.47-13.39c0-.51.64-.92,1.46-.92l26.43,0c.82,0,1.52.41,1.56.92l.95,13.4C461.68,395.6,461,396,460.18,396Z" transform="translate(-0.82)" fill="#fff"/><path d="M494.58,396.06l-26.91,0c-.84,0-1.56-.42-1.6-.95l-1-13.4c0-.5.6-.91,1.43-.91l26.43,0c.82,0,1.54.41,1.6.92l1.49,13.4C496.06,395.64,495.42,396.06,494.58,396.06Z" transform="translate(-0.82)" fill="#fff"/><path d="M529,396.1l-26.91,0c-.84,0-1.58-.42-1.64-.95l-1.56-13.4c-.06-.5.56-.91,1.39-.91l26.42,0c.83,0,1.57.41,1.64.92l2,13.39C530.44,395.68,529.82,396.1,529,396.1Z" transform="translate(-0.82)" fill="#fff"/><path d="M617,396.2l-79.48-.09c-1.42,0-2.68-.72-2.82-1.59l-1.91-12.13c-.13-.86.89-1.54,2.28-1.54l78.05.08c1.39,0,2.69.7,2.91,1.55l3.12,12.13C619.37,395.49,618.41,396.2,617,396.2Z" transform="translate(-0.82)" fill="#fff"/><path d="M313.66,376.78l-26.3,0c-.83,0-1.44-.41-1.37-.91l1.8-12.81c.06-.48.78-.87,1.58-.87l25.84,0c.81,0,1.43.39,1.38.88l-1.35,12.8C315.19,376.38,314.48,376.79,313.66,376.78Z" transform="translate(-0.82)" fill="#fff"/><path d="M349,376.82l-26.3,0c-.82,0-1.45-.41-1.4-.91l1.25-12.81c0-.48.74-.87,1.55-.87l25.84,0c.8,0,1.44.39,1.41.88l-.8,12.8C350.56,376.42,349.87,376.83,349,376.82Z" transform="translate(-0.82)" fill="#fff"/><path d="M384.43,376.86l-26.3,0c-.82,0-1.47-.41-1.44-.91l.7-12.81c0-.48.7-.87,1.51-.87l25.84,0c.81,0,1.46.39,1.45.88l-.25,12.8C385.93,376.46,385.25,376.87,384.43,376.86Z" transform="translate(-0.82)" fill="#fff"/><path d="M419.82,376.9l-26.3,0c-.83,0-1.49-.4-1.49-.9l.16-12.81c0-.48.66-.87,1.47-.87l25.84,0c.81,0,1.47.39,1.49.87l.3,12.81C421.3,376.5,420.64,376.91,419.82,376.9Z" transform="translate(-0.82)" fill="#fff"/><path d="M455.2,376.94l-26.3,0c-.82,0-1.5-.4-1.52-.9L427,363.2c0-.48.62-.87,1.43-.87l25.84,0c.81,0,1.49.39,1.53.87l.84,12.81C456.67,376.54,456,377,455.2,376.94Z" transform="translate(-0.82)" fill="#fff"/><path d="M490.59,377l-26.3,0c-.83,0-1.52-.4-1.56-.9l-.94-12.81c0-.48.59-.88,1.4-.87l25.83,0c.81,0,1.51.4,1.57.88L492,376.08C492,376.58,491.41,377,490.59,377Z" transform="translate(-0.82)" fill="#fff"/><path d="M526,377l-26.31,0c-.82,0-1.53-.4-1.59-.9l-1.49-12.81c-.06-.48.55-.88,1.36-.88l25.84,0c.81,0,1.52.4,1.59.88l2,12.81C527.41,376.62,526.8,377,526,377Z" transform="translate(-0.82)" fill="#fff"/><path d="M561.36,377.06l-26.3,0c-.82,0-1.56-.4-1.64-.9l-2-12.81c-.07-.49.52-.88,1.33-.88l25.84,0c.81,0,1.54.4,1.63.88l2.5,12.81C562.77,376.66,562.19,377.06,561.36,377.06Z" transform="translate(-0.82)" fill="#fff"/><path d="M612.78,377.12l-42-.05c-1,0-2-.5-2.09-1.13l-2.5-12.36c-.12-.61.6-1.1,1.61-1.1l41.22,0c1,0,2,.49,2.11,1.1L614.35,376C614.51,376.62,613.81,377.12,612.78,377.12Z" transform="translate(-0.82)" fill="#fff"/><path d="M285.26,358.36l-25.72,0c-.8,0-1.39-.39-1.3-.87l2.18-12.24c.08-.46.79-.84,1.58-.84l25.27,0c.79,0,1.38.38,1.32.84l-1.75,12.25C286.77,358,286.07,358.36,285.26,358.36Z" transform="translate(-0.82)" fill="#fff"/><path d="M318.14,358.4l-25.72,0c-.81,0-1.41-.39-1.34-.87l1.68-12.24c.06-.47.76-.84,1.55-.84l25.27,0c.79,0,1.4.38,1.35.84l-1.25,12.24C319.64,358,318.94,358.4,318.14,358.4Z" transform="translate(-0.82)" fill="#fff"/><path d="M351,358.44l-25.71,0c-.81,0-1.42-.39-1.38-.87l1.18-12.25c0-.46.72-.83,1.52-.83l25.27,0c.79,0,1.41.38,1.38.85l-.75,12.24C352.5,358.05,351.82,358.44,351,358.44Z" transform="translate(-0.82)" fill="#fff"/><path d="M383.89,358.47l-25.72,0c-.8,0-1.43-.39-1.41-.86l.69-12.25c0-.46.68-.84,1.47-.84l25.28,0c.79,0,1.42.38,1.41.84l-.24,12.25C385.36,358.09,384.7,358.47,383.89,358.47Z" transform="translate(-0.82)" fill="#fff"/><path d="M416.77,358.51l-25.72,0c-.81,0-1.45-.39-1.45-.87l.19-12.24c0-.47.65-.84,1.44-.84l25.28,0c.79,0,1.44.37,1.45.84l.25,12.24C418.22,358.12,417.57,358.51,416.77,358.51Z" transform="translate(-0.82)" fill="#fff"/><path d="M449.64,358.55l-25.72,0c-.8,0-1.46-.39-1.48-.87l-.31-12.25c0-.46.62-.84,1.41-.83l25.28,0c.79,0,1.45.38,1.48.84l.75,12.25C451.08,358.16,450.45,358.55,449.64,358.55Z" transform="translate(-0.82)" fill="#fff"/><path d="M482.52,358.58l-25.72,0c-.8,0-1.48-.38-1.52-.86l-.81-12.25c0-.46.59-.84,1.38-.84l25.28,0c.79,0,1.47.38,1.51.84l1.25,12.25C483.94,358.2,483.32,358.58,482.52,358.58Z" transform="translate(-0.82)" fill="#fff"/><path d="M515.39,358.62l-25.71,0c-.81,0-1.5-.39-1.55-.87l-1.31-12.24c-.05-.47.55-.84,1.34-.84l25.27,0c.8,0,1.49.37,1.56.84l1.74,12.25C516.8,358.23,516.2,358.62,515.39,358.62Z" transform="translate(-0.82)" fill="#fff"/><path d="M548.27,358.66l-25.72,0c-.8,0-1.51-.39-1.58-.87l-1.81-12.25c-.07-.46.52-.84,1.31-.84l25.27,0c.8,0,1.51.38,1.59.84l2.24,12.25C549.66,358.27,549.08,358.66,548.27,358.66Z" transform="translate(-0.82)" fill="#fff"/><path d="M607.87,358.73,556,358.67c-1.13,0-2.14-.55-2.27-1.22l-2.17-11.57c-.13-.65.67-1.17,1.78-1.17l51,.06c1.11,0,2.14.53,2.31,1.17l3,11.58C609.77,358.18,609,358.73,607.87,358.73Z" transform="translate(-0.82)" fill="#fff"/><path d="M243,376.71l-53.31-.06c-1.15,0-1.94-.58-1.76-1.28L191,363.29c.18-.68,1.24-1.23,2.37-1.23l52.37.06c1.13,0,1.95.55,1.82,1.23l-2.29,12.09C245.16,376.14,244.12,376.71,243,376.71Z" transform="translate(-0.82)" fill="#fff"/><path d="M251.43,395.79,185,395.71c-1.3,0-2.18-.65-2-1.46l3.21-12.38c.2-.78,1.4-1.41,2.67-1.41l65.26.07c1.27,0,2.19.64,2.06,1.42L254,394.33C253.9,395.14,252.73,395.79,251.43,395.79Z" transform="translate(-0.82)" fill="#fff"/><path d="M257.71,416.31l-77.83-.08c-1.41,0-2.38-.74-2.14-1.64l3.31-12.78c.23-.88,1.54-1.58,2.93-1.58l76.39.08c1.4,0,2.41.71,2.27,1.59l-2.09,12.78C260.4,415.58,259.13,416.32,257.71,416.31Z" transform="translate(-0.82)" fill="#fff"/><path d="M622.31,416.73l-74.8-.09c-1.39,0-2.64-.72-2.79-1.61l-2.12-12.85c-.14-.85.85-1.55,2.22-1.55l73.42.09c1.37,0,2.65.69,2.87,1.55l3.31,12.85C624.65,416,623.7,416.73,622.31,416.73Z" transform="translate(-0.82)" fill="#fff"/><path d="M451.37,438.07l-171.54-.19c-1.4,0-2.43-.75-2.3-1.66l1.9-13.55c.12-.88,1.34-1.59,2.71-1.59l168.29.19c1.38,0,2.53.72,2.59,1.6l.79,13.55C453.86,437.33,452.77,438.07,451.37,438.07Z" transform="translate(-0.82)" fill="#fff"/><polygon points="469.68 491.98 330.23 491.82 333.31 450.87 466.7 451.02 469.68 491.98" fill="#fff"/><rect x="236.2" width="328.37" height="294.73" fill="#fff"/><rect x="249.82" y="5.23" width="134.56" height="70.05" fill="#f04e4f"/><polygon points="255.54 66.88 283.86 31.2 307.24 66.88 255.54 66.88" fill="#fff"/><polygon points="291.25 66.88 319.56 14.21 342.94 66.88 291.25 66.88" fill="#e6e6e5"/><polygon points="326.95 66.88 355.26 31.2 378.64 66.88 326.95 66.88" fill="#fff"/><ellipse cx="298.58" cy="32.29" rx="6.11" ry="6.19" fill="#fff"/><path d="M349.47,28.8a3,3,0,0,0-.79-1.71c-.95-.93-2.21-.6-3.21.15,0-.11,0-.23,0-.35a2.69,2.69,0,1,0-5.38,0s0,0,0,.06a2.14,2.14,0,0,0-2.67.21,2.87,2.87,0,0,0-.78,1.64h-.14a1.2,1.2,0,0,0,0,2.4h12.86a1.2,1.2,0,0,0,.08-2.4Z" transform="translate(-0.82)" fill="#fff"/><path d="M276.33,23.71a2.84,2.84,0,0,0-.79-1.71c-1-.94-2.21-.61-3.21.15,0-.12,0-.24,0-.36a2.69,2.69,0,1,0-5.38,0s0,0,0,.07a2.14,2.14,0,0,0-2.67.2,2.87,2.87,0,0,0-.78,1.64h-.14a1.2,1.2,0,0,0,0,2.4h12.86a1.2,1.2,0,0,0,.08-2.39Z" transform="translate(-0.82)" fill="#fff"/><rect x="389.39" y="5.23" width="160.92" height="1.94" fill="#f04e4f"/><rect x="389.39" y="12.02" width="160.92" height="1.94" fill="#f04e4f"/><rect x="389.39" y="19.07" width="49.9" height="10.68" fill="#ffd035"/><rect x="444.9" y="19.07" width="49.9" height="10.68" fill="#ffd035"/><rect x="500.41" y="19.07" width="49.9" height="10.68" fill="#ffd035"/><rect x="389.39" y="33.63" width="49.9" height="10.68" fill="#ffd035"/><rect x="444.9" y="33.63" width="49.9" height="10.68" fill="#ffd035"/><rect x="500.41" y="33.63" width="49.9" height="10.68" fill="#ffd035"/><rect x="389.39" y="49.04" width="160.92" height="2.55" fill="#f04e4f"/><rect x="389.39" y="54.87" width="160.92" height="2.55" fill="#f04e4f"/><rect x="389.39" y="60.69" width="160.92" height="2.55" fill="#f04e4f"/><rect x="389.39" y="66.52" width="160.92" height="2.55" fill="#f04e4f"/><rect x="389.39" y="72.35" width="160.92" height="2.55" fill="#f04e4f"/><rect x="249.82" y="82.9" width="300.5" height="13.02" fill="#ffd035"/><rect x="249.82" y="106.62" width="135.55" height="4.41" fill="#f04e4f"/><rect x="249.82" y="119.95" width="135.55" height="4.41" fill="#f04e4f"/><rect x="249.82" y="133.27" width="135.55" height="4.41" fill="#f04e4f"/><rect x="249.82" y="188.59" width="135.55" height="4.41" fill="#f04e4f"/><path d="M548,193.43H398.78a3.47,3.47,0,0,1-3.45-3.49V108.57a3.47,3.47,0,0,1,3.45-3.49H548a3.47,3.47,0,0,1,3.45,3.49v81.37A3.47,3.47,0,0,1,548,193.43Z" transform="translate(-0.82)" fill="#073c5a"/><rect x="400.76" y="110.35" width="143.63" height="62.99" fill="#fdb614"/><rect x="400.76" y="175.85" width="143.63" height="12.53" fill="#fdb614"/><ellipse cx="473.88" cy="142.95" rx="22.13" ry="22.42" fill="#542018" opacity="0.32"/><ellipse cx="472.58" cy="141.85" rx="22.13" ry="22.42" fill="#fff"/><ellipse cx="472.58" cy="141.85" rx="18.81" ry="19.06" fill="#e6e7e7"/><polygon points="465.76 142.95 465.76 131.67 475.4 137.31 485.04 142.95 475.4 148.58 465.76 154.22 465.76 142.95" fill="#542018" opacity="0.32"/><polygon points="464.24 141.85 464.24 130.57 473.88 136.21 483.52 141.85 473.88 147.48 464.24 153.12 464.24 141.85" fill="#fdb614"/><polygon points="413.91 181.29 412.51 180.48 412.51 182.12 412.51 183.75 413.91 182.94 415.31 182.12 413.91 181.29" fill="#fff"/><polygon points="405.81 182.12 407.21 182.94 408.61 183.75 408.61 182.12 408.61 180.48 407.21 181.29 405.81 182.12" fill="#fff"/><rect x="409.58" y="180.48" width="0.66" height="3.28" fill="#fff"/><rect x="410.89" y="180.48" width="0.66" height="3.28" fill="#fff"/><rect x="417.4" y="181.99" width="122.18" height="1.11" fill="#fff"/><ellipse cx="451.97" cy="182.54" rx="3.89" ry="3.94" fill="#073c5a"/><ellipse cx="451.97" cy="182.54" rx="2.27" ry="2.3" fill="#fff"/><rect x="249.82" y="147.19" width="41.89" height="11.37" fill="#fdb614"/><rect x="296.64" y="147.19" width="41.89" height="11.37" fill="#fdb614"/><rect x="343.47" y="147.19" width="41.89" height="11.37" fill="#fdb614"/><rect x="249.82" y="167.26" width="41.89" height="11.37" fill="#fdb614"/><rect x="296.64" y="167.26" width="41.89" height="11.37" fill="#fdb614"/><rect x="343.47" y="167.26" width="41.89" height="11.37" fill="#fdb614"/><rect x="249.82" y="202.82" width="300.92" height="11.17" fill="#f04e4f"/><rect x="249.82" y="223.21" width="300.92" height="3.88" fill="#fdb614"/><rect x="249.48" y="236.44" width="300.92" height="3.88" fill="#fdb614"/><rect x="249.14" y="249.68" width="300.92" height="3.88" fill="#fdb614"/><rect x="248.8" y="262.92" width="300.92" height="3.88" fill="#fdb614"/><rect x="248.46" y="276.16" width="300.92" height="3.88" fill="#fdb614"/><polygon points="749.81 155.64 749.81 130.65 604.07 130.65 604.07 338.15 780.22 338.15 780.22 155.64 749.81 155.64" fill="#fff"/><polygon points="749.81 130.65 749.81 155.64 780.22 155.64 749.81 130.65" fill="#333"/><path d="M616.34,203.91h-.82l24.3-61.76h1l-24.48,61.74Zm61.14,0H664.3l-3.84-9.55h-26.7l-3.84,9.55H616.81l24.49-61.76h11.43ZM656,183.31l-8.9-22.19-8.9,22.19Zm-2.77-41.16h1l24.56,61.76H678l0,0Z" transform="translate(-0.82)" fill="#f04e4f"/><rect x="614.7" y="213.18" width="156.5" height="3.18" fill="#ffd035"/><rect x="614.7" y="223.58" width="156.5" height="3.18" fill="#ffd035"/><rect x="614.7" y="233.98" width="156.5" height="3.18" fill="#ffd035"/><rect x="614.7" y="244.73" width="46.08" height="3.02" fill="#ffd035"/><rect x="669.91" y="244.73" width="46.08" height="3.02" fill="#ffd035"/><rect x="725.12" y="244.73" width="46.08" height="3.02" fill="#ffd035"/><rect x="614.7" y="255.06" width="69.24" height="3.2" fill="#ffd035"/><rect x="692.15" y="255.06" width="79.05" height="3.2" fill="#ffd035"/><rect x="614.7" y="264.84" width="156.5" height="3.51" fill="#ffd035"/><rect x="614.7" y="274.93" width="156.5" height="3.51" fill="#ffd035"/><rect x="614.7" y="301.97" width="156.5" height="3.51" fill="#ffd035"/><rect x="614.7" y="310.75" width="156.5" height="3.51" fill="#ffd035"/><rect x="614.7" y="319.52" width="156.5" height="3.51" fill="#ffd035"/><rect x="614.7" y="285.11" width="34.56" height="2.92" fill="#ffd035"/><rect x="655.35" y="285.11" width="34.56" height="2.92" fill="#ffd035"/><rect x="696" y="285.11" width="34.56" height="2.92" fill="#ffd035"/><rect x="736.64" y="285.11" width="34.56" height="2.92" fill="#ffd035"/><rect x="614.7" y="294.08" width="48.79" height="2.63" fill="#ffd035"/><rect x="668.55" y="294.08" width="48.79" height="2.63" fill="#ffd035"/><rect x="722.41" y="294.08" width="48.79" height="2.63" fill="#ffd035"/><rect x="708.86" y="142.15" width="36.67" height="2.93" fill="#ffd035"/><rect x="681.2" y="150.55" width="64.33" height="2.93" fill="#ffd035"/><rect x="681.2" y="158.96" width="90" height="2.93" fill="#ffd035"/><rect x="681.2" y="167.36" width="90" height="2.93" fill="#ffd035"/><rect x="681.2" y="175.77" width="90" height="2.93" fill="#ffd035"/><rect x="681.2" y="184.17" width="90" height="2.93" fill="#ffd035"/><rect x="681.2" y="192.58" width="90" height="2.93" fill="#ffd035"/><rect x="681.2" y="200.98" width="90" height="2.93" fill="#ffd035"/><rect x="734.48" y="132.86" width="32.27" height="299.02" transform="translate(-1.41 1.57) rotate(-0.12)" fill="#333"/><rect x="746.47" y="132.86" width="6.92" height="299.02" transform="translate(-1.41 1.58) rotate(-0.12)" fill="#23b9d6"/><path d="M734.8,431.88h32.27a0,0,0,0,1,0,0V449a3.53,3.53,0,0,1-3.53,3.53H738.33A3.53,3.53,0,0,1,734.8,449V431.88A0,0,0,0,1,734.8,431.88Z" transform="translate(-1.74 1.57) rotate(-0.12)" fill="#fff"/><polygon points="733.35 132.9 750.5 63.94 765.63 132.83 733.35 132.9" fill="#072c3a"/><polygon points="765.63 132.83 733.35 132.9 745.39 84.5 755.02 84.48 765.63 132.83" fill="#fff"/><polygon points="755.02 84.48 745.39 84.5 750.49 63.95 755.02 84.48" fill="#333"/><rect x="734.72" y="402.06" width="32.27" height="1.24" transform="matrix(1, 0, 0, 1, -1.66, 1.57)" fill="#fff"/><rect x="734.73" y="406.78" width="32.27" height="1.24" transform="translate(-1.67 1.57) rotate(-0.12)" fill="#fff"/><rect x="734.7" y="388.57" width="32.27" height="1.24" transform="translate(-1.63 1.57) rotate(-0.12)" fill="#fff"/><rect x="734.71" y="393.29" width="32.27" height="1.24" transform="matrix(1, 0, 0, 1, -1.64, 1.57)" fill="#fff"/><rect x="33.53" y="107.15" width="82.77" height="81.66" transform="translate(-50.43 38.42) rotate(-21.81)" fill="#4b615f"/><rect x="35.44" y="111.33" width="73.77" height="60.33" transform="translate(-48.21 36.99) rotate(-21.81)" fill="#77c4dd"/><polygon points="91.49 165.98 57.05 137.57 51.72 181.9 91.49 165.98" fill="#4c6da2"/><polygon points="57.05 137.57 54.03 162.69 58.4 163.99 61.15 155.24 65.49 158.65 68.16 152.43 72.06 153.59 73.54 151.18 57.05 137.57" fill="#fff"/><polygon points="102.81 161.45 70.95 135.16 66.01 176.18 102.81 161.45" fill="#5477b1"/><polyline points="72.9 161.73 68.39 156.38 70.95 135.16 90.46 151.26 86.54 149.51 85.81 152.38 80.17 150.77 78.66 154.45 74.77 155.66 72.9 161.73" fill="#fff"/><path d="M89.4,119.4a5.76,5.76,0,1,1-7.49-3.2A5.77,5.77,0,0,1,89.4,119.4Z" transform="translate(-0.82)" fill="#f5aa39"/><path d="M36.09,133.62a1.48,1.48,0,0,0-1.1-2.74,1.48,1.48,0,0,0,1.1,2.74Z" transform="translate(-0.82)" fill="#fff"/><path d="M44.1,143.49a1.48,1.48,0,0,0-1.1-2.75,1.48,1.48,0,0,0,1.1,2.75Z" transform="translate(-0.82)" fill="#fff"/><path d="M60.61,132.52a1.48,1.48,0,0,0-1.1-2.75,1.48,1.48,0,0,0,1.1,2.75Z" transform="translate(-0.82)" fill="#fff"/><path d="M73,120.44a1.48,1.48,0,0,0-1.1-2.75,1.48,1.48,0,0,0,1.1,2.75Z" transform="translate(-0.82)" fill="#fff"/><path d="M73.77,130a1.48,1.48,0,0,0-1.1-2.75,1.48,1.48,0,0,0,1.1,2.75Z" transform="translate(-0.82)" fill="#fff"/><path d="M89,136.41a1.48,1.48,0,0,0-1.1-2.75,1.48,1.48,0,0,0,1.1,2.75Z" transform="translate(-0.82)" fill="#fff"/><path d="M89.73,145.92a1.48,1.48,0,0,0-1.1-2.75,1.48,1.48,0,0,0,1.1,2.75Z" transform="translate(-0.82)" fill="#fff"/><path d="M99.57,141.3a1.48,1.48,0,0,0-1.1-2.75,1.48,1.48,0,0,0,1.1,2.75Z" transform="translate(-0.82)" fill="#fff"/><path d="M100.17,127a1.48,1.48,0,0,0-1.1-2.74,1.48,1.48,0,0,0,1.1,2.74Z" transform="translate(-0.82)" fill="#fff"/><path d="M94.42,112.62a1.48,1.48,0,0,0-1.1-2.74,1.48,1.48,0,0,0,1.1,2.74Z" transform="translate(-0.82)" fill="#fff"/><path d="M49.16,156.13a1.48,1.48,0,0,0-1.1-2.74,1.48,1.48,0,0,0,1.1,2.74Z" transform="translate(-0.82)" fill="#fff"/><path d="M48.67,134.64a1.48,1.48,0,0,0-1.1-2.75,1.48,1.48,0,0,0,1.1,2.75Z" transform="translate(-0.82)" fill="#fff"/><path d="M54.91,124.5a1.48,1.48,0,0,0-1.1-2.75,1.48,1.48,0,0,0,1.1,2.75Z" transform="translate(-0.82)" fill="#fff"/><rect x="68.32" y="175.67" width="81.66" height="82.77" transform="translate(-130.71 260.47) rotate(-73.6)" fill="#4b615f"/><rect x="80.96" y="173.46" width="60.33" height="73.77" transform="translate(-122.87 257.55) rotate(-73.6)" fill="#77c4dd"/><polygon points="110.85 241.95 101.37 198.33 69.76 229.86 110.85 241.95" fill="#4c6da2"/><polygon points="101.37 198.33 83.46 216.2 86.08 219.92 93.66 214.75 94.96 220.11 100.91 216.88 103.26 220.2 105.91 219.22 101.37 198.33" fill="#fff"/><polygon points="122.56 245.4 113.78 205.03 84.53 234.21 122.56 245.4" fill="#5477b1"/><polyline points="98.88 227.12 98.65 220.13 113.78 205.03 119.15 229.76 117.16 225.95 114.81 227.75 111.37 223 107.91 224.96 104.1 223.5 98.88 227.12" fill="#fff"/><path d="M138.2,203.55a5.76,5.76,0,1,1-3.9-7.14A5.76,5.76,0,0,1,138.2,203.55Z" transform="translate(-0.82)" fill="#f5aa39"/><path d="M87.52,181.75a1.48,1.48,0,0,0,.83-2.83,1.48,1.48,0,0,0-.83,2.83Z" transform="translate(-0.82)" fill="#fff"/><path d="M87.71,194.46a1.48,1.48,0,0,0,.83-2.83,1.48,1.48,0,0,0-.83,2.83Z" transform="translate(-0.82)" fill="#fff"/><path d="M107.47,196.05a1.48,1.48,0,0,0,.83-2.84,1.48,1.48,0,0,0-.83,2.84Z" transform="translate(-0.82)" fill="#fff"/><path d="M124.68,194.23a1.48,1.48,0,0,0,.84-2.83,1.48,1.48,0,0,0-.84,2.83Z" transform="translate(-0.82)" fill="#fff"/><path d="M119.35,202.24a1.48,1.48,0,0,0,.83-2.84,1.48,1.48,0,0,0-.83,2.84Z" transform="translate(-0.82)" fill="#fff"/><path d="M127.37,216.67a1.48,1.48,0,0,0,.83-2.84,1.48,1.48,0,0,0-.83,2.84Z" transform="translate(-0.82)" fill="#fff"/><path d="M122.06,224.6a1.48,1.48,0,0,0,.83-2.84,1.48,1.48,0,0,0-.83,2.84Z" transform="translate(-0.82)" fill="#fff"/><path d="M132.65,227.05a1.48,1.48,0,0,0,.83-2.84,1.48,1.48,0,0,0-.83,2.84Z" transform="translate(-0.82)" fill="#fff"/><path d="M142,216.17a1.48,1.48,0,0,0,.84-2.84,1.48,1.48,0,0,0-.84,2.84Z" transform="translate(-0.82)" fill="#fff"/><path d="M146.34,201.34a1.48,1.48,0,0,0,.83-2.84,1.48,1.48,0,0,0-.83,2.84Z" transform="translate(-0.82)" fill="#fff"/><path d="M83.86,207.52a1.48,1.48,0,0,0,.84-2.83,1.48,1.48,0,0,0-.84,2.83Z" transform="translate(-0.82)" fill="#fff"/><path d="M96.77,190.33a1.48,1.48,0,0,0,.84-2.84,1.48,1.48,0,0,0-.84,2.84Z" transform="translate(-0.82)" fill="#fff"/><path d="M108,186.23a1.48,1.48,0,0,0,.84-2.84,1.48,1.48,0,0,0-.84,2.84Z" transform="translate(-0.82)" fill="#fff"/><rect x="38.86" y="258.44" width="82.77" height="81.66" transform="translate(-106.26 51.23) rotate(-21.81)" fill="#4b615f"/><rect x="40.77" y="262.62" width="73.77" height="60.33" transform="translate(-104.03 49.8) rotate(-21.81)" fill="#77c4dd"/><polygon points="96.81 317.28 62.38 288.87 57.05 333.19 96.81 317.28" fill="#4c6da2"/><polygon points="62.38 288.87 59.36 313.99 63.73 315.29 66.48 306.54 70.81 309.95 73.49 303.73 77.39 304.89 78.87 302.47 62.38 288.87" fill="#fff"/><polygon points="108.14 312.75 76.28 286.46 71.34 327.48 108.14 312.75" fill="#5477b1"/><polyline points="78.22 313.03 73.72 307.68 76.28 286.46 95.79 302.56 91.87 300.81 91.14 303.67 85.5 302.07 83.99 305.75 80.1 306.96 78.22 313.03" fill="#fff"/><path d="M94.73,270.7a5.76,5.76,0,1,1-7.49-3.2A5.76,5.76,0,0,1,94.73,270.7Z" transform="translate(-0.82)" fill="#f5aa39"/><path d="M41.42,284.92a1.48,1.48,0,0,0-1.1-2.75,1.48,1.48,0,0,0,1.1,2.75Z" transform="translate(-0.82)" fill="#fff"/><path d="M49.43,294.79a1.48,1.48,0,0,0-1.1-2.75,1.48,1.48,0,0,0,1.1,2.75Z" transform="translate(-0.82)" fill="#fff"/><path d="M65.94,283.81a1.48,1.48,0,0,0-1.1-2.74,1.48,1.48,0,0,0,1.1,2.74Z" transform="translate(-0.82)" fill="#fff"/><path d="M78.34,271.74a1.48,1.48,0,0,0-1.1-2.75,1.48,1.48,0,0,0,1.1,2.75Z" transform="translate(-0.82)" fill="#fff"/><path d="M79.1,281.32a1.48,1.48,0,0,0-1.1-2.74,1.48,1.48,0,0,0,1.1,2.74Z" transform="translate(-0.82)" fill="#fff"/><path d="M94.33,287.7a1.48,1.48,0,0,0-1.1-2.74,1.48,1.48,0,0,0,1.1,2.74Z" transform="translate(-0.82)" fill="#fff"/><path d="M95.06,297.22a1.48,1.48,0,0,0-1.1-2.75,1.48,1.48,0,0,0,1.1,2.75Z" transform="translate(-0.82)" fill="#fff"/><path d="M104.9,292.6a1.48,1.48,0,0,0-1.1-2.75,1.48,1.48,0,0,0,1.1,2.75Z" transform="translate(-0.82)" fill="#fff"/><path d="M105.5,278.28a1.48,1.48,0,0,0-1.1-2.75,1.48,1.48,0,0,0,1.1,2.75Z" transform="translate(-0.82)" fill="#fff"/><path d="M99.75,263.92a1.48,1.48,0,0,0-1.1-2.74,1.48,1.48,0,0,0,1.1,2.74Z" transform="translate(-0.82)" fill="#fff"/><path d="M54.49,307.43a1.48,1.48,0,0,0-1.1-2.74,1.48,1.48,0,0,0,1.1,2.74Z" transform="translate(-0.82)" fill="#fff"/><path d="M54,285.93a1.48,1.48,0,0,0-1.1-2.74,1.48,1.48,0,0,0,1.1,2.74Z" transform="translate(-0.82)" fill="#fff"/><path d="M60.24,275.79a1.48,1.48,0,0,0-1.1-2.74,1.48,1.48,0,0,0,1.1,2.74Z" transform="translate(-0.82)" fill="#fff"/></svg>