<svg xmlns="http://www.w3.org/2000/svg" xmlns:xlink="http://www.w3.org/1999/xlink" width="800" height="510.93" viewBox="0 0 800 510.93"><defs><linearGradient id="a" x1="216.48" y1="357.81" x2="579.28" y2="260.6" gradientUnits="userSpaceOnUse"><stop offset="0" stop-color="#3f3f3f"/><stop offset="1" stop-color="#303030"/></linearGradient><linearGradient id="b" x1="196.98" y1="525.07" x2="568.98" y2="413.72" gradientUnits="userSpaceOnUse"><stop offset="0" stop-color="#e1e1e1"/><stop offset="1" stop-color="#cececd"/></linearGradient><linearGradient id="c" x1="397.88" y1="491" x2="397.88" y2="465.72" gradientUnits="userSpaceOnUse"><stop offset="0" stop-color="#595a5a"/><stop offset="1" stop-color="#cbcaca"/></linearGradient><linearGradient id="d" x1="340.19" y1="501.01" x2="463.5" y2="456.82" gradientUnits="userSpaceOnUse"><stop offset="0" stop-color="#9b9a9a"/><stop offset="1" stop-color="#828282"/></linearGradient><linearGradient id="e" x1="207.47" y1="430.71" x2="552.37" y2="389.05" gradientUnits="userSpaceOnUse"><stop offset="0" stop-color="#777676"/><stop offset="1" stop-color="#5e5f5f"/></linearGradient><linearGradient id="f" x1="207.66" y1="432.37" x2="552.58" y2="390.7" xlink:href="#e"/><linearGradient id="g" x1="207.87" y1="434.02" x2="552.78" y2="392.36" xlink:href="#e"/><linearGradient id="h" x1="208.06" y1="435.68" x2="552.98" y2="394.01" xlink:href="#e"/><linearGradient id="i" x1="208.26" y1="437.34" x2="553.17" y2="395.67" xlink:href="#e"/><linearGradient id="j" x1="208.47" y1="438.99" x2="553.37" y2="397.33" xlink:href="#e"/><linearGradient id="k" x1="208.66" y1="440.65" x2="553.57" y2="398.98" xlink:href="#e"/><linearGradient id="l" x1="208.86" y1="442.3" x2="553.77" y2="400.64" xlink:href="#e"/><linearGradient id="m" x1="209.07" y1="443.96" x2="553.97" y2="402.29" xlink:href="#e"/><linearGradient id="n" x1="209.26" y1="445.61" x2="554.17" y2="403.95" xlink:href="#e"/><linearGradient id="o" x1="209.46" y1="447.27" x2="554.38" y2="405.6" xlink:href="#e"/><linearGradient id="p" x1="209.67" y1="448.93" x2="554.57" y2="407.26" xlink:href="#e"/><linearGradient id="q" x1="209.86" y1="450.58" x2="554.77" y2="408.91" xlink:href="#e"/><linearGradient id="r" x1="210.07" y1="452.24" x2="554.97" y2="410.57" xlink:href="#e"/><linearGradient id="s" x1="210.27" y1="453.89" x2="555.17" y2="412.23" xlink:href="#e"/><linearGradient id="t" x1="210.46" y1="455.55" x2="555.37" y2="413.88" xlink:href="#e"/><linearGradient id="u" x1="210.67" y1="457.2" x2="555.57" y2="415.54" xlink:href="#e"/><linearGradient id="v" x1="210.86" y1="458.86" x2="555.77" y2="417.19" xlink:href="#e"/><linearGradient id="w" x1="211.07" y1="460.51" x2="555.97" y2="418.85" xlink:href="#e"/><linearGradient id="x" x1="211.27" y1="462.17" x2="556.17" y2="420.5" xlink:href="#e"/><linearGradient id="y" x1="211.46" y1="463.83" x2="556.37" y2="422.16" xlink:href="#e"/><linearGradient id="z" x1="211.67" y1="465.48" x2="556.57" y2="423.81" xlink:href="#e"/><linearGradient id="aa" x1="211.86" y1="467.14" x2="556.77" y2="425.47" xlink:href="#e"/><linearGradient id="ab" x1="212.31" y1="470.86" x2="557.22" y2="429.2" xlink:href="#e"/><linearGradient id="ac" x1="208.02" y1="435.33" x2="552.93" y2="393.66" xlink:href="#e"/><linearGradient id="ad" x1="213.09" y1="477.27" x2="558" y2="435.6" xlink:href="#e"/><linearGradient id="ae" x1="208.56" y1="439.75" x2="553.46" y2="398.09" xlink:href="#e"/><linearGradient id="af" x1="215.15" y1="494.31" x2="560.06" y2="452.64" xlink:href="#e"/><linearGradient id="ag" x1="211.67" y1="465.54" x2="556.58" y2="423.88" xlink:href="#e"/><linearGradient id="ah" x1="211.98" y1="468.05" x2="556.88" y2="426.39" xlink:href="#e"/><linearGradient id="ai" x1="211.7" y1="465.75" x2="556.61" y2="424.09" xlink:href="#e"/><linearGradient id="aj" x1="211.42" y1="463.45" x2="556.33" y2="421.78" xlink:href="#e"/><linearGradient id="ak" x1="211.14" y1="461.15" x2="556.05" y2="419.48" xlink:href="#e"/><linearGradient id="al" x1="210.86" y1="458.85" x2="555.77" y2="417.18" xlink:href="#e"/><linearGradient id="am" x1="210.59" y1="456.55" x2="555.49" y2="414.88" xlink:href="#e"/><linearGradient id="an" x1="210.31" y1="454.23" x2="555.21" y2="412.57" xlink:href="#e"/><linearGradient id="ao" x1="210.03" y1="451.95" x2="554.94" y2="410.28" xlink:href="#e"/><linearGradient id="ap" x1="209.75" y1="449.64" x2="554.66" y2="407.97" xlink:href="#e"/><linearGradient id="aq" x1="209.47" y1="447.34" x2="554.38" y2="405.67" xlink:href="#e"/><linearGradient id="ar" x1="209.2" y1="445.04" x2="554.1" y2="403.37" xlink:href="#e"/><linearGradient id="as" x1="208.92" y1="442.73" x2="553.83" y2="401.07" xlink:href="#e"/><linearGradient id="at" x1="208.64" y1="440.43" x2="553.55" y2="398.77" xlink:href="#e"/><linearGradient id="au" x1="208.36" y1="438.13" x2="553.27" y2="396.46" xlink:href="#e"/><linearGradient id="av" x1="212.83" y1="475.1" x2="557.74" y2="433.44" xlink:href="#e"/><linearGradient id="aw" x1="212.54" y1="472.74" x2="557.45" y2="431.07" xlink:href="#e"/><linearGradient id="ax" x1="212.26" y1="470.38" x2="557.17" y2="428.71" xlink:href="#e"/><linearGradient id="ay" x1="211.97" y1="468.02" x2="556.88" y2="426.35" xlink:href="#e"/><linearGradient id="az" x1="211.69" y1="465.66" x2="556.59" y2="423.99" xlink:href="#e"/><linearGradient id="ba" x1="211.4" y1="463.3" x2="556.31" y2="421.63" xlink:href="#e"/><linearGradient id="bb" x1="211.12" y1="460.92" x2="556.02" y2="419.26" xlink:href="#e"/><linearGradient id="bc" x1="210.83" y1="458.57" x2="555.74" y2="416.91" xlink:href="#e"/><linearGradient id="bd" x1="210.55" y1="456.22" x2="555.45" y2="414.55" xlink:href="#e"/><linearGradient id="be" x1="210.26" y1="453.85" x2="555.17" y2="412.18" xlink:href="#e"/><linearGradient id="bf" x1="209.97" y1="451.49" x2="554.88" y2="409.82" xlink:href="#e"/><linearGradient id="bg" x1="209.69" y1="449.13" x2="554.6" y2="407.46" xlink:href="#e"/><linearGradient id="bh" x1="209.4" y1="446.76" x2="554.31" y2="405.1" xlink:href="#e"/><linearGradient id="bi" x1="209.12" y1="444.4" x2="554.03" y2="402.74" xlink:href="#e"/><linearGradient id="bj" x1="208.83" y1="442.04" x2="553.74" y2="400.37" xlink:href="#e"/><linearGradient id="bk" x1="213.42" y1="480.04" x2="558.33" y2="438.37" xlink:href="#e"/><linearGradient id="bl" x1="213.13" y1="477.6" x2="558.04" y2="435.93" xlink:href="#e"/><linearGradient id="bm" x1="212.83" y1="475.16" x2="557.74" y2="433.49" xlink:href="#e"/><linearGradient id="bn" x1="212.54" y1="472.72" x2="557.45" y2="431.05" xlink:href="#e"/><linearGradient id="bo" x1="212.25" y1="470.28" x2="557.15" y2="428.61" xlink:href="#e"/><linearGradient id="bp" x1="211.95" y1="467.84" x2="556.86" y2="426.17" xlink:href="#e"/><linearGradient id="bq" x1="211.65" y1="465.39" x2="556.56" y2="423.72" xlink:href="#e"/><linearGradient id="br" x1="211.36" y1="462.97" x2="556.27" y2="421.3" xlink:href="#e"/><linearGradient id="bs" x1="211.07" y1="460.52" x2="555.97" y2="418.86" xlink:href="#e"/><linearGradient id="bt" x1="210.77" y1="458.08" x2="555.68" y2="416.42" xlink:href="#e"/><linearGradient id="bu" x1="210.48" y1="455.64" x2="555.39" y2="413.98" xlink:href="#e"/><linearGradient id="bv" x1="210.18" y1="453.2" x2="555.09" y2="411.54" xlink:href="#e"/><linearGradient id="bw" x1="209.89" y1="450.77" x2="554.8" y2="409.1" xlink:href="#e"/><linearGradient id="bx" x1="209.59" y1="448.33" x2="554.5" y2="406.66" xlink:href="#e"/><linearGradient id="by" x1="213.96" y1="484.46" x2="558.87" y2="442.79" xlink:href="#e"/><linearGradient id="bz" x1="213.65" y1="481.94" x2="558.56" y2="440.27" xlink:href="#e"/><linearGradient id="ca" x1="213.35" y1="479.42" x2="558.26" y2="437.75" xlink:href="#e"/><linearGradient id="cb" x1="213.04" y1="476.9" x2="557.95" y2="435.24" xlink:href="#e"/><linearGradient id="cc" x1="212.74" y1="474.39" x2="557.65" y2="432.72" xlink:href="#e"/><linearGradient id="cd" x1="212.44" y1="471.86" x2="557.35" y2="430.19" xlink:href="#e"/><linearGradient id="ce" x1="212.13" y1="469.35" x2="557.04" y2="427.68" xlink:href="#e"/><linearGradient id="cf" x1="211.83" y1="466.84" x2="556.74" y2="425.18" xlink:href="#e"/><linearGradient id="cg" x1="211.52" y1="464.32" x2="556.43" y2="422.65" xlink:href="#e"/><linearGradient id="ch" x1="211.22" y1="461.8" x2="556.13" y2="420.13" xlink:href="#e"/><linearGradient id="ci" x1="210.92" y1="459.28" x2="555.82" y2="417.61" xlink:href="#e"/><linearGradient id="cj" x1="210.61" y1="456.76" x2="555.52" y2="415.1" xlink:href="#e"/><linearGradient id="ck" x1="210.31" y1="454.25" x2="555.22" y2="412.58" xlink:href="#e"/><linearGradient id="cl" x1="214.84" y1="491.78" x2="559.75" y2="450.12" xlink:href="#e"/><linearGradient id="cm" x1="214.53" y1="489.21" x2="559.44" y2="447.54" xlink:href="#e"/><linearGradient id="cn" x1="214.22" y1="486.64" x2="559.13" y2="444.97" xlink:href="#e"/><linearGradient id="co" x1="213.91" y1="484.06" x2="558.82" y2="442.4" xlink:href="#e"/><linearGradient id="cp" x1="213.6" y1="481.49" x2="558.51" y2="439.82" xlink:href="#e"/><linearGradient id="cq" x1="213.29" y1="478.91" x2="558.2" y2="437.24" xlink:href="#e"/><linearGradient id="cr" x1="212.98" y1="476.34" x2="557.89" y2="434.67" xlink:href="#e"/><linearGradient id="cs" x1="212.67" y1="473.78" x2="557.58" y2="432.11" xlink:href="#e"/><linearGradient id="ct" x1="212.36" y1="471.19" x2="557.26" y2="429.53" xlink:href="#e"/><linearGradient id="cu" x1="212.04" y1="468.62" x2="556.95" y2="426.95" xlink:href="#e"/><linearGradient id="cv" x1="211.73" y1="466.05" x2="556.64" y2="424.38" xlink:href="#e"/><linearGradient id="cw" x1="211.42" y1="463.47" x2="556.33" y2="421.81" xlink:href="#e"/><linearGradient id="cx" x1="211.11" y1="460.9" x2="556.02" y2="419.23" xlink:href="#e"/><linearGradient id="cy" x1="213.76" y1="482.84" x2="558.67" y2="441.17" xlink:href="#e"/><linearGradient id="cz" x1="209.25" y1="445.5" x2="554.16" y2="403.83" xlink:href="#e"/><linearGradient id="da" x1="209.94" y1="451.18" x2="554.84" y2="409.51" xlink:href="#e"/><linearGradient id="db" x1="210.68" y1="457.34" x2="555.59" y2="415.67" xlink:href="#e"/><linearGradient id="dc" x1="211.33" y1="462.73" x2="556.24" y2="421.06" xlink:href="#e"/><linearGradient id="dd" x1="215.77" y1="499.46" x2="560.68" y2="457.8" xlink:href="#e"/><linearGradient id="de" x1="216.2" y1="503.01" x2="561.11" y2="461.34" xlink:href="#e"/><linearGradient id="df" x1="215.8" y1="499.67" x2="560.71" y2="458.01" xlink:href="#e"/><linearGradient id="dg" x1="216.24" y1="503.31" x2="561.14" y2="461.65" xlink:href="#e"/><linearGradient id="dh" x1="212" y1="468.29" x2="556.91" y2="426.62" xlink:href="#e"/><linearGradient id="di" x1="212.36" y1="471.22" x2="557.27" y2="429.56" xlink:href="#e"/><linearGradient id="dj" x1="214.86" y1="491.9" x2="559.77" y2="450.24" xlink:href="#e"/><linearGradient id="dk" x1="213.62" y1="481.67" x2="558.53" y2="440" xlink:href="#e"/><linearGradient id="dl" x1="214.42" y1="488.26" x2="559.33" y2="446.59" xlink:href="#e"/><linearGradient id="dm" x1="215.26" y1="495.23" x2="560.17" y2="453.56" xlink:href="#e"/><linearGradient id="dn" x1="215.46" y1="496.88" x2="560.37" y2="455.22" xlink:href="#e"/></defs><g style="isolation:isolate"><rect width="800" height="502.63" fill="#eaeaea"/><path d="M196.76,455.17q-3.1-3.44-6.09-7" fill="none" stroke="#9b9a9a" stroke-linecap="round" stroke-linejoin="round" stroke-width="3"/><path d="M179.08,433.42a261.85,261.85,0,0,1-50.27-154.67c0-145.25,117.75-263,263-263s263,117.75,263,263a261.76,261.76,0,0,1-49.35,153.4" fill="none" stroke="#9b9a9a" stroke-linecap="round" stroke-linejoin="round" stroke-width="3" stroke-dasharray="12.17 12.17"/><path d="M599.82,439.68c-1.88,2.44-3.82,4.85-5.79,7.22" fill="none" stroke="#9b9a9a" stroke-linecap="round" stroke-linejoin="round" stroke-width="3"/><g style="mix-blend-mode:multiply"><path d="M172.43,489.77l52.17-73.44c2.57-3.62,5.85-5.72,8.92-5.72H564.19c3.16,0,6.55,2.23,9.16,6l50.25,73.5c8.1,11.85,6.67,20.78-2.65,20.78H174.81C165.35,510.93,164.07,501.54,172.43,489.77Z" fill="#fff" opacity="0"/><path d="M173.35,489.47,225,416.75c2.55-3.59,5.8-5.67,8.87-5.67h330.1c3.17,0,6.53,2.21,9.12,6l49.67,72.77c8,11.71,6.47,20.71-2.81,20.71h-444C166.49,510.55,165.1,501.1,173.35,489.47Z" fill="#fbfbfb" opacity="0.03"/><path d="M174.28,489.17l51-72c2.53-3.57,5.77-5.63,8.83-5.63H563.66c3.16,0,6.51,2.19,9.07,5.95l49.09,72c7.89,11.57,6.26,20.63-3,20.63H177C167.62,510.16,166.13,500.66,174.28,489.17Z" fill="#f9f8f8" opacity="0.06"/><path d="M175.2,488.86l50.44-71.26c2.5-3.53,5.73-5.58,8.78-5.58h329c3.15,0,6.48,2.18,9,5.9l48.52,71.31c7.78,11.43,6,20.55-3.13,20.55H178.08C168.76,509.78,167.17,500.21,175.2,488.86Z" fill="#f6f5f5" opacity="0.1"/><path d="M176.13,488.56,226,418c2.47-3.51,5.68-5.54,8.73-5.54H563.14c3.15,0,6.46,2.16,9,5.85l47.95,70.58c7.67,11.29,5.85,20.47-3.29,20.47H179.17C169.89,509.39,168.2,499.77,176.13,488.56Z" fill="#f4f3f2" opacity="0.13"/><path d="M177.06,488.26l49.27-69.81C228.78,415,232,413,235,413H562.88c3.14,0,6.43,2.14,8.91,5.8l47.37,69.85c7.57,11.15,5.65,20.4-3.45,20.4H180.26C171,509,169.23,499.33,177.06,488.26Z" fill="#f2f1f0" opacity="0.16"/><path d="M178,488l48.7-69.07c2.43-3.45,5.6-5.44,8.64-5.44h327.3c3.13,0,6.41,2.12,8.86,5.74l46.79,69.12c7.46,11,5.44,20.32-3.61,20.32H181.35C172.16,508.62,170.27,498.89,178,488Z" fill="#f0efee" opacity="0.19"/><path d="M178.91,487.65,227,419.3c2.4-3.42,5.56-5.39,8.59-5.39H562.36c3.13,0,6.38,2.1,8.81,5.7L617.39,488c7.35,10.87,5.23,20.24-3.78,20.24H182.44C173.3,508.24,171.3,498.45,178.91,487.65Z" fill="#eeecec" opacity="0.23"/><path d="M179.83,487.35l47.54-67.63c2.38-3.38,5.52-5.34,8.55-5.34H562.09c3.13,0,6.37,2.08,8.77,5.65l45.64,67.66c7.25,10.73,5,20.16-3.94,20.16h-429C174.44,507.85,172.33,498,179.83,487.35Z" fill="#eceaea" opacity="0.26"/><path d="M180.76,487l47-66.89c2.35-3.36,5.48-5.3,8.5-5.3H561.83c3.12,0,6.34,2.07,8.72,5.6l45.06,66.93c7.14,10.6,4.82,20.08-4.09,20.08H184.62C175.57,507.46,173.36,497.57,180.76,487Z" fill="#eae8e8" opacity="0.29"/><path d="M181.68,486.74l46.39-66.17c2.33-3.32,5.43-5.25,8.45-5.25H561.57c3.12,0,6.32,2.05,8.67,5.55l44.49,66.2c7,10.46,4.61,20-4.26,20H185.71C176.71,507.08,174.4,497.13,181.68,486.74Z" fill="#e8e6e6" opacity="0.32"/><path d="M182.61,486.44,228.41,421c2.31-3.3,5.4-5.21,8.41-5.21H561.31c3.11,0,6.29,2,8.62,5.51l43.91,65.47c6.93,10.31,4.41,19.92-4.42,19.92H186.8C177.84,506.69,175.43,496.69,182.61,486.44Z" fill="#e6e4e4" opacity="0.35"/><path d="M183.54,486.13l45.22-64.71c2.28-3.26,5.35-5.16,8.37-5.16H561.05c3.1,0,6.27,2,8.57,5.46L613,486.46c6.82,10.18,4.2,19.85-4.58,19.85H187.89C179,506.31,176.46,496.25,183.54,486.13Z" fill="#e4e3e2" opacity="0.39"/><path d="M184.46,485.83l44.65-64c2.25-3.24,5.31-5.12,8.32-5.12H560.79c3.09,0,6.25,2,8.52,5.41l42.75,64c6.72,10,4,19.77-4.74,19.77H189C180.12,505.92,177.5,495.8,184.46,485.83Z" fill="#e2e1e0" opacity="0.42"/><path d="M185.39,485.53l44.06-63.26c2.24-3.21,5.28-5.07,8.28-5.07H560.52c3.1,0,6.23,2,8.48,5.36l42.18,63.28c6.61,9.9,3.79,19.7-4.91,19.7H190.08C181.25,505.54,178.53,495.36,185.39,485.53Z" fill="#e0dfde" opacity="0.45"/><path d="M186.31,485.22,229.8,422.7c2.21-3.18,5.23-5,8.23-5H560.26c3.09,0,6.21,2,8.43,5.31l41.6,62.56c6.5,9.76,3.59,19.61-5.06,19.61H191.17C182.39,505.15,179.56,494.92,186.31,485.22Z" fill="#dedddc" opacity="0.48"/><path d="M187.24,484.92l42.91-61.8c2.18-3.15,5.19-5,8.18-5H560c3.08,0,6.18,1.94,8.38,5.26l41,61.82c6.4,9.62,3.38,19.54-5.22,19.54H192.26C183.52,504.77,180.59,494.48,187.24,484.92Z" fill="#dcdbda" opacity="0.52"/><path d="M188.17,484.62l42.32-61.07c2.16-3.12,5.15-4.93,8.14-4.93H559.74c3.08,0,6.16,1.92,8.33,5.21l40.45,61.09c6.29,9.48,3.17,19.46-5.39,19.46H193.35C184.66,504.38,181.63,494,188.17,484.62Z" fill="#dad9d8" opacity="0.55"/><path d="M189.09,484.31,230.84,424c2.14-3.09,5.11-4.88,8.09-4.88H559.48c3.07,0,6.13,1.9,8.28,5.16l39.87,60.36c6.18,9.35,3,19.39-5.55,19.39H194.44C185.79,504,182.66,493.6,189.09,484.31Z" fill="#d8d7d6" opacity="0.58"/><path d="M190,484l41.17-59.61c2.11-3.07,5.06-4.84,8-4.84h320c3.06,0,6.11,1.89,8.23,5.11l39.29,59.64c6.08,9.2,2.76,19.3-5.71,19.3H195.53C186.93,503.61,183.69,493.16,190,484Z" fill="#d7d5d5" opacity="0.61"/><path d="M190.94,483.71l40.59-58.89c2.09-3,5-4.79,8-4.79H559c3.06,0,6.08,1.87,8.18,5.06L605.86,484c6,9.07,2.55,19.23-5.88,19.23H196.62C188.07,503.23,184.73,492.72,190.94,483.71Z" fill="#d5d3d3" opacity="0.65"/><path d="M191.87,483.4l40-58.15c2.06-3,5-4.75,8-4.75H558.69c3.06,0,6.07,1.85,8.14,5L605,483.69c5.86,8.93,2.35,19.15-6,19.15H197.71C189.2,502.84,185.76,492.28,191.87,483.4Z" fill="#d3d2d1" opacity="0.68"/><path d="M192.79,483.1l39.43-57.43c2-3,4.95-4.7,7.91-4.7h318.3c3.05,0,6,1.84,8.09,5l37.56,57.44c5.76,8.79,2.14,19.07-6.19,19.07H198.8C190.34,502.45,186.79,491.84,192.79,483.1Z" fill="#d1d0cf" opacity="0.71"/><path d="M193.72,482.8l38.85-56.7c2-3,4.91-4.66,7.86-4.66H558.17c3.05,0,6,1.82,8,4.92l37,56.71c5.65,8.66,1.94,19-6.35,19h-397C191.47,502.07,187.82,491.39,193.72,482.8Z" fill="#d0cece" opacity="0.74"/><path d="M194.65,482.49l38.27-56a9.69,9.69,0,0,1,7.81-4.61H557.91c3,0,6,1.8,8,4.87l36.41,56c5.54,8.51,1.73,18.91-6.52,18.91H201C192.61,501.68,188.86,491,194.65,482.49Z" fill="#cecccc" opacity="0.77"/><path d="M195.57,482.19,233.26,427a9.62,9.62,0,0,1,7.77-4.57H557.65c3,0,6,1.79,7.94,4.82l35.83,55.26c5.44,8.37,1.52,18.84-6.68,18.84H202.07C193.74,501.3,189.89,490.51,195.57,482.19Z" fill="#cccbca" opacity="0.81"/><path d="M196.5,481.89l37.11-54.52a9.51,9.51,0,0,1,7.72-4.52H557.39a9.63,9.63,0,0,1,7.89,4.78l35.25,54.52c5.33,8.24,1.32,18.76-6.84,18.76H203.16C194.88,500.91,190.92,490.07,196.5,481.89Z" fill="#cac9c8" opacity="0.84"/><path d="M197.42,481.58,234,427.79a9.44,9.44,0,0,1,7.67-4.46H557.12a9.52,9.52,0,0,1,7.85,4.72l34.68,53.79c5.22,8.1,1.11,18.69-7,18.69H204.25C196,500.53,192,489.63,197.42,481.58Z" fill="#c9c7c7" opacity="0.87"/><path d="M198.35,481.28l36-53.06a9.35,9.35,0,0,1,7.63-4.42H556.86a9.46,9.46,0,0,1,7.8,4.67l34.1,53.07c5.12,7.95.91,18.6-7.16,18.6H205.34C197.15,500.14,193,489.19,198.35,481.28Z" fill="#c7c5c5" opacity="0.9"/><path d="M199.28,481l35.37-52.34a9.29,9.29,0,0,1,7.58-4.37H556.6a9.34,9.34,0,0,1,7.74,4.62l33.53,52.34c5,7.82.7,18.53-7.32,18.53H206.43C198.29,499.76,194,488.75,199.28,481Z" fill="#c5c4c3" opacity="0.94"/><path d="M200.2,480.68,235,429.07a9.17,9.17,0,0,1,7.53-4.33H556.34a9.24,9.24,0,0,1,7.69,4.57l33,51.61c4.91,7.68.5,18.45-7.48,18.45h-382C199.42,499.37,195.05,488.31,200.2,480.68Z" fill="#c3c2c2" opacity="0.97"/><path d="M201.13,480.37l34.21-50.88a9.14,9.14,0,0,1,7.49-4.28H556.08a9.14,9.14,0,0,1,7.64,4.53l32.38,50.87c4.79,7.54.29,18.38-7.65,18.38H208.61C200.56,499,196.09,487.87,201.13,480.37Z" fill="#c2c0c0"/></g><path d="M605.82,502.63H191.32c-4.13,0-10.07-7.5-6-14l46.86-58.49a11.38,11.38,0,0,1,8.67-4.56H554.91a11.41,11.41,0,0,1,8.68,4.56l46.85,58.49C615.5,497.17,610,502.63,605.82,502.63Z" fill="#bbbaba"/><rect x="231.41" y="199.3" width="332.93" height="219.81" rx="6.41" fill="url(#a)"/><rect x="241.61" y="208.7" width="312.55" height="201.02" fill="#00a5e1"/><path d="M607.74,496.14H188c-4.23,0-5.4-3.39-2.7-7.48l43.07-65a11.73,11.73,0,0,1,8.88-4.56H558.49a11.73,11.73,0,0,1,8.88,4.56l43.07,65C613.14,492.75,612,496.14,607.74,496.14Z" fill="url(#b)"/><polygon points="453.58 489.91 342.18 489.91 345.79 469.02 449.97 469.02 453.58 489.91" fill="url(#c)"/><polygon points="453.58 489.91 342.18 489.91 346.12 469.34 449.83 469.34 453.58 489.91" fill="url(#d)"/><polygon points="250.9 427.98 237.6 427.98 237.6 427.32 252.19 425.7 250.9 427.98" fill="#4d4c4c"/><polygon points="264.87 427.98 251.57 427.98 251.57 427.32 266.04 425.7 264.87 427.98" fill="#4d4c4c"/><polygon points="278.83 427.98 265.54 427.98 265.54 427.32 279.88 425.7 278.83 427.98" fill="#4d4c4c"/><polygon points="292.8 427.98 279.5 427.98 279.5 427.32 293.72 425.7 292.8 427.98" fill="#4d4c4c"/><polygon points="306.77 427.98 293.47 427.98 293.47 427.32 307.57 425.7 306.77 427.98" fill="#4d4c4c"/><polygon points="320.73 427.98 307.44 427.98 307.44 427.32 321.41 425.7 320.73 427.98" fill="#4d4c4c"/><polygon points="334.7 427.98 321.4 427.98 321.4 427.32 335.25 425.7 334.7 427.98" fill="#4d4c4c"/><rect x="335.37" y="427.33" width="13.3" height="0.66" fill="#4d4c4c"/><rect x="349.33" y="427.33" width="13.3" height="0.66" fill="#4d4c4c"/><polygon points="376.6 427.98 363.3 427.98 363.3 427.32 376.78 425.7 376.6 427.98" fill="#4d4c4c"/><polygon points="390.56 427.98 377.27 427.98 377.27 427.32 390.63 425.7 390.56 427.98" fill="#4d4c4c"/><rect x="391.23" y="427.33" width="13.3" height="0.66" fill="#4d4c4c"/><polygon points="418.5 427.98 405.2 427.98 405.13 425.7 418.5 427.32 418.5 427.98" fill="#4d4c4c"/><polygon points="432.46 427.98 419.16 427.98 418.98 425.7 432.46 427.32 432.46 427.98" fill="#4d4c4c"/><polygon points="446.43 427.98 433.13 427.98 432.82 425.7 446.43 427.32 446.43 427.98" fill="#4d4c4c"/><polygon points="460.39 427.98 447.1 427.98 446.66 425.7 460.39 427.32 460.39 427.98" fill="#4d4c4c"/><polygon points="474.36 427.98 461.06 427.98 460.51 425.7 474.36 427.32 474.36 427.98" fill="#4d4c4c"/><polygon points="488.32 427.98 475.03 427.98 474.35 425.7 488.32 427.32 488.32 427.98" fill="#4d4c4c"/><polygon points="502.29 427.98 488.99 427.98 488.19 425.7 502.29 427.32 502.29 427.98" fill="#4d4c4c"/><polygon points="516.26 427.98 502.96 427.98 502.04 425.7 516.26 427.32 516.26 427.98" fill="#4d4c4c"/><polygon points="530.22 427.98 516.93 427.98 515.88 425.7 530.22 427.32 530.22 427.98" fill="#4d4c4c"/><polygon points="544.19 427.98 530.89 427.98 529.72 425.7 544.19 427.32 544.19 427.98" fill="#4d4c4c"/><polygon points="558.15 427.98 544.86 427.98 543.57 425.7 558.15 427.32 558.15 427.98" fill="#4d4c4c"/><polygon points="561.47 433.35 535.37 433.35 532.97 428.77 561.47 432.69 561.47 433.35" fill="#4d4c4c"/><polygon points="260.39 433.35 234.29 433.35 234.29 432.69 262.79 428.77 260.39 433.35" fill="#4d4c4c"/><polygon points="564.93 438.95 548.7 438.95 546.02 434.18 564.93 438.29 564.93 438.95" fill="#4d4c4c"/><polygon points="247.06 438.95 230.83 438.95 230.83 438.29 249.74 434.18 247.06 438.95" fill="#4d4c4c"/><polygon points="505.34 463.92 487.74 463.92 485.98 458.24 505.34 463.26 505.34 463.92" fill="#4d4c4c"/><polygon points="261.39 463.92 243.79 463.92 243.79 463.26 264.04 458.24 261.39 463.92" fill="#4d4c4c"/><polygon points="534.09 433.35 515.18 433.35 513.15 428.77 534.09 432.69 534.09 433.35" fill="#4d4c4c"/><polygon points="514.59 433.35 495.68 433.35 493.99 428.77 514.59 432.69 514.59 433.35" fill="#4d4c4c"/><polygon points="495.08 433.35 476.18 433.35 474.83 428.77 495.08 432.69 495.08 433.35" fill="#4d4c4c"/><polygon points="475.58 433.35 456.68 433.35 455.66 428.77 475.58 432.69 475.58 433.35" fill="#4d4c4c"/><polygon points="456.08 433.35 437.18 433.35 436.5 428.77 456.08 432.69 456.08 433.35" fill="#4d4c4c"/><polygon points="436.58 433.35 417.68 433.35 417.34 428.77 436.58 432.69 436.58 433.35" fill="#4d4c4c"/><polygon points="417.01 433.35 398.1 433.35 398.1 428.77 417.01 432.69 417.01 433.35" fill="#4d4c4c"/><polygon points="397.66 433.35 378.75 433.35 378.75 432.69 397.66 428.77 397.66 433.35" fill="#4d4c4c"/><polygon points="378.08 433.35 359.18 433.35 359.18 432.69 378.42 428.77 378.08 433.35" fill="#4d4c4c"/><rect x="339.68" y="432.69" width="18.9" height="0.66" fill="#4d4c4c"/><polygon points="339.08 433.35 320.18 433.35 320.18 432.69 340.1 428.77 339.08 433.35" fill="#4d4c4c"/><polygon points="319.58 433.35 300.68 433.35 300.68 432.69 320.93 428.77 319.58 433.35" fill="#4d4c4c"/><polygon points="300.08 433.35 281.18 433.35 281.18 432.69 301.77 428.77 300.08 433.35" fill="#4d4c4c"/><polygon points="280.58 433.35 261.67 433.35 261.67 432.69 282.61 428.77 280.58 433.35" fill="#4d4c4c"/><polygon points="548.1 438.95 528.8 438.95 526.49 434.18 548.1 438.29 548.1 438.95" fill="#4d4c4c"/><polygon points="528.09 438.95 508.79 438.95 506.83 434.18 528.09 438.29 528.09 438.95" fill="#4d4c4c"/><polygon points="508.08 438.95 488.78 438.95 487.17 434.18 508.08 438.29 508.08 438.95" fill="#4d4c4c"/><polygon points="488.07 438.95 468.77 438.95 467.51 434.18 488.07 438.29 488.07 438.95" fill="#4d4c4c"/><polygon points="468.06 438.95 448.76 438.95 447.86 434.18 468.06 438.29 468.06 438.95" fill="#4d4c4c"/><polygon points="448.05 438.95 428.75 438.95 428.2 434.18 448.05 438.29 448.05 438.95" fill="#4d4c4c"/><polygon points="427.96 438.95 408.66 438.95 408.47 434.18 427.96 438.29 427.96 438.95" fill="#4d4c4c"/><rect x="388.72" y="438.29" width="19.3" height="0.66" fill="#4d4c4c"/><polygon points="388.09 438.95 368.79 438.95 368.79 438.29 388.26 434.18 388.09 438.95" fill="#4d4c4c"/><polygon points="368.01 438.95 348.7 438.95 348.7 438.29 368.53 434.18 368.01 438.95" fill="#4d4c4c"/><polygon points="348 438.95 328.69 438.95 328.69 438.29 348.88 434.18 348 438.95" fill="#4d4c4c"/><polygon points="327.98 438.95 308.68 438.95 308.68 438.29 329.22 434.18 327.98 438.95" fill="#4d4c4c"/><polygon points="307.97 438.95 288.67 438.95 288.67 438.29 309.56 434.18 307.97 438.95" fill="#4d4c4c"/><polygon points="287.96 438.95 268.66 438.95 268.66 438.29 289.9 434.18 287.96 438.95" fill="#4d4c4c"/><polygon points="267.95 438.95 248.65 438.95 248.65 438.29 270.25 434.18 267.95 438.95" fill="#4d4c4c"/><polygon points="542.24 444.79 522.52 444.79 520.28 439.81 542.24 444.13 542.24 444.79" fill="#4d4c4c"/><polygon points="521.57 444.79 501.85 444.79 499.98 439.81 521.57 444.13 521.57 444.79" fill="#4d4c4c"/><polygon points="500.9 444.79 481.18 444.79 479.68 439.81 500.9 444.13 500.9 444.79" fill="#4d4c4c"/><polygon points="480.22 444.79 460.5 444.79 459.38 439.81 480.22 444.13 480.22 444.79" fill="#4d4c4c"/><polygon points="459.55 444.79 439.83 444.79 439.07 439.81 459.55 444.13 459.55 444.79" fill="#4d4c4c"/><polygon points="438.88 444.79 419.16 444.79 418.77 439.81 438.88 444.13 438.88 444.79" fill="#4d4c4c"/><polygon points="418.12 444.79 398.4 444.79 398.39 439.81 418.12 444.13 418.12 444.79" fill="#4d4c4c"/><rect x="377.89" y="444.13" width="19.72" height="0.66" fill="#4d4c4c"/><polygon points="376.86 444.79 357.14 444.79 357.14 444.13 377.24 439.81 376.86 444.79" fill="#4d4c4c"/><polygon points="356.18 444.79 336.46 444.79 336.46 444.13 356.94 439.81 356.18 444.79" fill="#4d4c4c"/><polygon points="335.51 444.79 315.79 444.79 315.79 444.13 336.63 439.81 335.51 444.79" fill="#4d4c4c"/><polygon points="314.84 444.79 295.12 444.79 295.12 444.13 316.33 439.81 314.84 444.79" fill="#4d4c4c"/><polygon points="294.16 444.79 274.44 444.79 274.44 444.13 296.03 439.81 294.16 444.79" fill="#4d4c4c"/><polygon points="273.49 444.79 253.77 444.79 253.77 444.13 275.73 439.81 273.49 444.79" fill="#4d4c4c"/><polygon points="529.93 450.88 509.77 450.88 507.71 445.69 529.93 450.23 529.93 450.88" fill="#4d4c4c"/><polygon points="508.59 450.88 488.43 450.88 486.76 445.69 508.59 450.23 508.59 450.88" fill="#4d4c4c"/><polygon points="487.25 450.88 467.09 450.88 465.82 445.69 487.25 450.23 487.25 450.88" fill="#4d4c4c"/><polygon points="465.91 450.88 445.75 450.88 444.87 445.69 465.91 450.23 465.91 450.88" fill="#4d4c4c"/><polygon points="444.57 450.88 424.41 450.88 423.92 445.69 444.57 450.23 444.57 450.88" fill="#4d4c4c"/><polygon points="423.15 450.88 402.99 450.88 402.9 445.69 423.15 450.23 423.15 450.88" fill="#4d4c4c"/><polygon points="401.89 450.88 381.73 450.88 381.73 450.23 401.81 445.69 401.89 450.88" fill="#4d4c4c"/><polygon points="380.62 450.88 360.47 450.88 360.47 450.23 380.94 445.69 380.62 450.88" fill="#4d4c4c"/><polygon points="359.21 450.88 339.05 450.88 339.05 450.23 359.92 445.69 359.21 450.88" fill="#4d4c4c"/><polygon points="337.87 450.88 317.71 450.88 317.71 450.23 338.97 445.69 337.87 450.88" fill="#4d4c4c"/><polygon points="316.52 450.88 296.37 450.88 296.37 450.23 318.02 445.69 316.52 450.88" fill="#4d4c4c"/><polygon points="295.19 450.88 275.03 450.88 275.03 450.23 297.08 445.69 295.19 450.88" fill="#4d4c4c"/><polygon points="273.85 450.88 253.69 450.88 253.69 450.23 276.13 445.69 273.85 450.88" fill="#4d4c4c"/><polygon points="540.04 457.25 519.43 457.25 517.14 451.82 540.04 456.6 540.04 457.25" fill="#4d4c4c"/><polygon points="518.22 457.25 497.61 457.25 495.73 451.82 518.22 456.6 518.22 457.25" fill="#4d4c4c"/><polygon points="496.4 457.25 475.79 457.25 474.32 451.82 496.4 456.6 496.4 457.25" fill="#4d4c4c"/><polygon points="474.58 457.25 453.96 457.25 452.91 451.82 474.58 456.6 474.58 457.25" fill="#4d4c4c"/><polygon points="452.75 457.25 432.14 457.25 431.5 451.82 452.75 456.6 452.75 457.25" fill="#4d4c4c"/><polygon points="430.85 457.25 410.24 457.25 410.01 451.82 430.85 456.6 430.85 457.25" fill="#4d4c4c"/><rect x="388.5" y="456.6" width="20.61" height="0.66" fill="#4d4c4c"/><polygon points="387.37 457.25 366.76 457.25 366.76 456.6 387.57 451.82 387.37 457.25" fill="#4d4c4c"/><polygon points="365.47 457.25 344.86 457.25 344.86 456.6 366.08 451.82 365.47 457.25" fill="#4d4c4c"/><polygon points="343.65 457.25 323.04 457.25 323.04 456.6 344.67 451.82 343.65 457.25" fill="#4d4c4c"/><polygon points="321.82 457.25 301.21 457.25 301.21 456.6 323.25 451.82 321.82 457.25" fill="#4d4c4c"/><polygon points="300 457.25 279.39 457.25 279.39 456.6 301.84 451.82 300 457.25" fill="#4d4c4c"/><polygon points="278.18 457.25 257.57 457.25 257.57 456.6 280.43 451.82 278.18 457.25" fill="#4d4c4c"/><polygon points="568.54 444.79 543.65 444.79 540.99 439.81 568.54 444.13 568.54 444.79" fill="#4d4c4c"/><polygon points="252.12 444.79 227.22 444.79 227.22 444.13 254.77 439.81 252.12 444.79" fill="#4d4c4c"/><polygon points="251.97 450.88 223.46 450.88 223.46 450.23 254.68 445.69 251.97 450.88" fill="#4d4c4c"/><polygon points="255.78 457.25 219.52 457.25 219.52 456.6 258.48 451.82 255.78 457.25" fill="#4d4c4c"/><polygon points="241.92 463.92 215.4 463.92 215.4 463.26 244.95 457.58 244.95 458.24 241.92 463.92" fill="#4d4c4c"/><polygon points="547.68 463.92 532.71 463.92 529.87 458.28 547.68 463.26 547.68 463.92" fill="#4d4c4c"/><polygon points="564.5 463.92 548.16 463.92 546.86 461.39 564.5 463.26 564.5 463.92" fill="#4d4c4c"/><polygon points="562.71 460.72 546.52 460.72 545.24 458.24 562.71 460.06 562.71 460.72" fill="#4d4c4c"/><polygon points="580.16 463.92 565.19 463.92 562.04 458.28 580.16 463.26 580.16 463.92" fill="#4d4c4c"/><polygon points="288.39 463.92 263.25 463.92 263.25 463.26 290.5 458.24 288.39 463.92" fill="#4d4c4c"/><polygon points="311.26 463.92 290.26 463.92 290.26 463.26 312.82 458.24 311.26 463.92" fill="#4d4c4c"/><polygon points="485.88 463.92 466.25 463.92 465.04 458.24 485.88 463.26 485.88 463.92" fill="#4d4c4c"/><rect x="313.12" y="463.26" width="151.26" height="0.66" fill="#4d4c4c"/><polygon points="572.3 450.88 531.65 450.88 529.16 445.69 572.3 450.23 572.3 450.88" fill="#4d4c4c"/><polygon points="576.24 457.25 541.57 457.25 538.84 451.82 576.24 456.6 576.24 457.25" fill="#4d4c4c"/><polygon points="529.47 463.92 507.2 463.92 505.07 458.24 529.47 463.26 529.47 463.92" fill="#4d4c4c"/><polygon points="250.9 427.32 237.6 427.32 239.01 425.04 252.19 425.04 250.9 427.32" fill="url(#e)"/><polygon points="264.87 427.32 251.57 427.32 252.86 425.04 266.04 425.04 264.87 427.32" fill="url(#f)"/><polygon points="278.83 427.32 265.54 427.32 266.7 425.04 279.88 425.04 278.83 427.32" fill="url(#g)"/><polygon points="292.8 427.32 279.5 427.32 280.55 425.04 293.72 425.04 292.8 427.32" fill="url(#h)"/><polygon points="306.77 427.32 293.47 427.32 294.39 425.04 307.57 425.04 306.77 427.32" fill="url(#i)"/><polygon points="320.73 427.32 307.44 427.32 308.23 425.04 321.41 425.04 320.73 427.32" fill="url(#j)"/><polygon points="334.7 427.32 321.4 427.32 322.07 425.04 335.25 425.04 334.7 427.32" fill="url(#k)"/><polygon points="348.67 427.32 335.37 427.32 335.92 425.04 349.1 425.04 348.67 427.32" fill="url(#l)"/><polygon points="362.63 427.32 349.33 427.32 349.76 425.04 362.94 425.04 362.63 427.32" fill="url(#m)"/><polygon points="376.6 427.32 363.3 427.32 363.6 425.04 376.78 425.04 376.6 427.32" fill="url(#n)"/><polygon points="390.56 427.32 377.27 427.32 377.45 425.04 390.63 425.04 390.56 427.32" fill="url(#o)"/><polygon points="404.53 427.32 391.23 427.32 391.29 425.04 404.47 425.04 404.53 427.32" fill="url(#p)"/><polygon points="418.5 427.32 405.2 427.32 405.13 425.04 418.31 425.04 418.5 427.32" fill="url(#q)"/><polygon points="432.46 427.32 419.16 427.32 418.98 425.04 432.16 425.04 432.46 427.32" fill="url(#r)"/><polygon points="446.43 427.32 433.13 427.32 432.82 425.04 446 425.04 446.43 427.32" fill="url(#s)"/><polygon points="460.39 427.32 447.1 427.32 446.66 425.04 459.84 425.04 460.39 427.32" fill="url(#t)"/><polygon points="474.36 427.32 461.06 427.32 460.51 425.04 473.69 425.04 474.36 427.32" fill="url(#u)"/><polygon points="488.32 427.32 475.03 427.32 474.35 425.04 487.53 425.04 488.32 427.32" fill="url(#v)"/><polygon points="502.29 427.32 488.99 427.32 488.19 425.04 501.37 425.04 502.29 427.32" fill="url(#w)"/><polygon points="516.26 427.32 502.96 427.32 502.04 425.04 515.22 425.04 516.26 427.32" fill="url(#x)"/><polygon points="530.22 427.32 516.93 427.32 515.88 425.04 529.06 425.04 530.22 427.32" fill="url(#y)"/><polygon points="544.19 427.32 530.89 427.32 529.72 425.04 542.9 425.04 544.19 427.32" fill="url(#z)"/><polygon points="558.15 427.32 544.86 427.32 543.57 425.04 556.75 425.04 558.15 427.32" fill="url(#aa)"/><polygon points="561.47 432.69 535.37 432.69 532.97 428.12 558.64 428.12 561.47 432.69" fill="url(#ab)"/><polygon points="260.39 432.69 234.29 432.69 237.12 428.12 262.79 428.12 260.39 432.69" fill="url(#ac)"/><polygon points="564.93 438.29 548.7 438.29 546.02 433.52 561.98 433.52 564.93 438.29" fill="url(#ad)"/><polygon points="247.06 438.29 230.83 438.29 233.78 433.52 249.74 433.52 247.06 438.29" fill="url(#ae)"/><polygon points="505.34 463.26 487.74 463.26 485.98 457.58 503.27 457.58 505.34 463.26" fill="url(#af)"/><polygon points="261.39 463.26 243.79 463.26 246.75 457.58 264.04 457.58 261.39 463.26" fill="url(#ag)"/><polygon points="534.09 432.69 515.18 432.69 513.15 428.12 531.73 428.12 534.09 432.69" fill="url(#ah)"/><polygon points="514.59 432.69 495.68 432.69 493.99 428.12 512.57 428.12 514.59 432.69" fill="url(#ai)"/><polygon points="495.08 432.69 476.18 432.69 474.83 428.12 493.4 428.12 495.08 432.69" fill="url(#aj)"/><polygon points="475.58 432.69 456.68 432.69 455.66 428.12 474.24 428.12 475.58 432.69" fill="url(#ak)"/><polygon points="456.08 432.69 437.18 432.69 436.5 428.12 455.08 428.12 456.08 432.69" fill="url(#al)"/><polygon points="436.58 432.69 417.68 432.69 417.34 428.12 435.91 428.12 436.58 432.69" fill="url(#am)"/><polygon points="417.01 432.69 398.1 432.69 398.1 428.12 416.68 428.12 417.01 432.69" fill="url(#an)"/><polygon points="397.66 432.69 378.75 432.69 379.09 428.12 397.66 428.12 397.66 432.69" fill="url(#ao)"/><polygon points="378.08 432.69 359.18 432.69 359.85 428.12 378.42 428.12 378.08 432.69" fill="url(#ap)"/><polygon points="358.58 432.69 339.68 432.69 340.68 428.12 359.26 428.12 358.58 432.69" fill="url(#aq)"/><polygon points="339.08 432.69 320.18 432.69 321.52 428.12 340.1 428.12 339.08 432.69" fill="url(#ar)"/><polygon points="319.58 432.69 300.68 432.69 302.36 428.12 320.93 428.12 319.58 432.69" fill="url(#as)"/><polygon points="300.08 432.69 281.18 432.69 283.19 428.12 301.77 428.12 300.08 432.69" fill="url(#at)"/><polygon points="280.58 432.69 261.67 432.69 264.03 428.12 282.61 428.12 280.58 432.69" fill="url(#au)"/><polygon points="548.1 438.29 528.8 438.29 526.49 433.52 545.45 433.52 548.1 438.29" fill="url(#av)"/><polygon points="528.09 438.29 508.79 438.29 506.83 433.52 525.79 433.52 528.09 438.29" fill="url(#aw)"/><polygon points="508.08 438.29 488.78 438.29 487.17 433.52 506.14 433.52 508.08 438.29" fill="url(#ax)"/><polygon points="488.07 438.29 468.77 438.29 467.51 433.52 486.48 433.52 488.07 438.29" fill="url(#ay)"/><polygon points="468.06 438.29 448.76 438.29 447.86 433.52 466.82 433.52 468.06 438.29" fill="url(#az)"/><polygon points="448.05 438.29 428.75 438.29 428.2 433.52 447.16 433.52 448.05 438.29" fill="url(#ba)"/><polygon points="427.96 438.29 408.66 438.29 408.47 433.52 427.43 433.52 427.96 438.29" fill="url(#bb)"/><polygon points="408.03 438.29 388.72 438.29 388.88 433.52 407.85 433.52 408.03 438.29" fill="url(#bc)"/><polygon points="388.09 438.29 368.79 438.29 369.3 433.52 388.26 433.52 388.09 438.29" fill="url(#bd)"/><polygon points="368.01 438.29 348.7 438.29 349.57 433.52 368.53 433.52 368.01 438.29" fill="url(#be)"/><polygon points="348 438.29 328.69 438.29 329.91 433.52 348.88 433.52 348 438.29" fill="url(#bf)"/><polygon points="327.98 438.29 308.68 438.29 310.25 433.52 329.22 433.52 327.98 438.29" fill="url(#bg)"/><polygon points="307.97 438.29 288.67 438.29 290.6 433.52 309.56 433.52 307.97 438.29" fill="url(#bh)"/><polygon points="287.96 438.29 268.66 438.29 270.94 433.52 289.9 433.52 287.96 438.29" fill="url(#bi)"/><polygon points="267.95 438.29 248.65 438.29 251.28 433.52 270.25 433.52 267.95 438.29" fill="url(#bj)"/><polygon points="542.24 444.13 522.52 444.13 520.28 439.15 539.64 439.15 542.24 444.13" fill="url(#bk)"/><polygon points="521.57 444.13 501.85 444.13 499.98 439.15 519.34 439.15 521.57 444.13" fill="url(#bl)"/><polygon points="500.9 444.13 481.18 444.13 479.68 439.15 499.04 439.15 500.9 444.13" fill="url(#bm)"/><polygon points="480.22 444.13 460.5 444.13 459.38 439.15 478.74 439.15 480.22 444.13" fill="url(#bn)"/><polygon points="459.55 444.13 439.83 444.13 439.07 439.15 458.44 439.15 459.55 444.13" fill="url(#bo)"/><polygon points="438.88 444.13 419.16 444.13 418.77 439.15 438.14 439.15 438.88 444.13" fill="url(#bp)"/><polygon points="418.12 444.13 398.4 444.13 398.39 439.15 417.75 439.15 418.12 444.13" fill="url(#bq)"/><polygon points="397.61 444.13 377.89 444.13 378.25 439.15 397.62 439.15 397.61 444.13" fill="url(#br)"/><polygon points="376.86 444.13 357.14 444.13 357.87 439.15 377.24 439.15 376.86 444.13" fill="url(#bs)"/><polygon points="356.18 444.13 336.46 444.13 337.57 439.15 356.94 439.15 356.18 444.13" fill="url(#bt)"/><polygon points="335.51 444.13 315.79 444.13 317.27 439.15 336.63 439.15 335.51 444.13" fill="url(#bu)"/><polygon points="314.84 444.13 295.12 444.13 296.97 439.15 316.33 439.15 314.84 444.13" fill="url(#bv)"/><polygon points="294.16 444.13 274.44 444.13 276.67 439.15 296.03 439.15 294.16 444.13" fill="url(#bw)"/><polygon points="273.49 444.13 253.77 444.13 256.37 439.15 275.73 439.15 273.49 444.13" fill="url(#bx)"/><polygon points="529.93 450.23 509.77 450.23 507.71 445.03 527.5 445.03 529.93 450.23" fill="url(#by)"/><polygon points="508.59 450.23 488.43 450.23 486.76 445.03 506.55 445.03 508.59 450.23" fill="url(#bz)"/><polygon points="487.25 450.23 467.09 450.23 465.82 445.03 485.6 445.03 487.25 450.23" fill="url(#ca)"/><polygon points="465.91 450.23 445.75 450.23 444.87 445.03 464.65 445.03 465.91 450.23" fill="url(#cb)"/><polygon points="444.57 450.23 424.41 450.23 423.92 445.03 443.71 445.03 444.57 450.23" fill="url(#cc)"/><polygon points="423.15 450.23 402.99 450.23 402.9 445.03 422.68 445.03 423.15 450.23" fill="url(#cd)"/><polygon points="401.89 450.23 381.73 450.23 382.03 445.03 401.81 445.03 401.89 450.23" fill="url(#ce)"/><polygon points="380.62 450.23 360.47 450.23 361.16 445.03 380.94 445.03 380.62 450.23" fill="url(#cf)"/><polygon points="359.21 450.23 339.05 450.23 340.13 445.03 359.92 445.03 359.21 450.23" fill="url(#cg)"/><polygon points="337.87 450.23 317.71 450.23 319.19 445.03 338.97 445.03 337.87 450.23" fill="url(#ch)"/><polygon points="316.52 450.23 296.37 450.23 298.24 445.03 318.02 445.03 316.52 450.23" fill="url(#ci)"/><polygon points="295.19 450.23 275.03 450.23 277.29 445.03 297.08 445.03 295.19 450.23" fill="url(#cj)"/><polygon points="273.85 450.23 253.69 450.23 256.35 445.03 276.13 445.03 273.85 450.23" fill="url(#ck)"/><polygon points="540.04 456.6 519.43 456.6 517.14 451.16 537.37 451.16 540.04 456.6" fill="url(#cl)"/><polygon points="518.22 456.6 497.61 456.6 495.73 451.16 515.95 451.16 518.22 456.6" fill="url(#cm)"/><polygon points="496.4 456.6 475.79 456.6 474.32 451.16 494.54 451.16 496.4 456.6" fill="url(#cn)"/><polygon points="474.58 456.6 453.96 456.6 452.91 451.16 473.13 451.16 474.58 456.6" fill="url(#co)"/><polygon points="452.75 456.6 432.14 456.6 431.5 451.16 451.72 451.16 452.75 456.6" fill="url(#cp)"/><polygon points="430.85 456.6 410.24 456.6 410.01 451.16 430.23 451.16 430.85 456.6" fill="url(#cq)"/><polygon points="409.11 456.6 388.5 456.6 388.68 451.16 408.9 451.16 409.11 456.6" fill="url(#cr)"/><polygon points="387.37 456.6 366.76 456.6 367.35 451.16 387.57 451.16 387.37 456.6" fill="url(#cs)"/><polygon points="365.47 456.6 344.86 456.6 345.86 451.16 366.08 451.16 365.47 456.6" fill="url(#ct)"/><polygon points="343.65 456.6 323.04 456.6 324.44 451.16 344.67 451.16 343.65 456.6" fill="url(#cu)"/><polygon points="321.82 456.6 301.21 456.6 303.03 451.16 323.25 451.16 321.82 456.6" fill="url(#cv)"/><polygon points="300 456.6 279.39 456.6 281.62 451.16 301.84 451.16 300 456.6" fill="url(#cw)"/><polygon points="278.18 456.6 257.57 456.6 260.21 451.16 280.43 451.16 278.18 456.6" fill="url(#cx)"/><polygon points="568.54 444.13 543.65 444.13 540.99 439.15 565.46 439.15 568.54 444.13" fill="url(#cy)"/><polygon points="252.12 444.13 227.22 444.13 230.3 439.15 254.77 439.15 252.12 444.13" fill="url(#cz)"/><polygon points="251.97 450.23 223.46 450.23 226.67 445.03 254.68 445.03 251.97 450.23" fill="url(#da)"/><polygon points="255.78 456.6 219.52 456.6 222.88 451.16 258.48 451.16 255.78 456.6" fill="url(#db)"/><polygon points="241.92 463.26 215.4 463.26 218.91 457.58 244.95 457.58 241.92 463.26" fill="url(#dc)"/><polygon points="547.68 463.26 532.71 463.26 529.87 457.62 544.72 457.62 547.68 463.26" fill="url(#dd)"/><polygon points="564.5 463.26 548.16 463.26 546.86 460.73 563.09 460.73 564.5 463.26" fill="url(#de)"/><polygon points="562.71 460.06 546.52 460.06 545.24 457.58 561.32 457.58 562.71 460.06" fill="url(#df)"/><polygon points="580.16 463.26 565.19 463.26 562.04 457.62 576.89 457.62 580.16 463.26" fill="url(#dg)"/><polygon points="288.39 463.26 263.25 463.26 265.84 457.58 290.5 457.58 288.39 463.26" fill="url(#dh)"/><polygon points="311.26 463.26 290.26 463.26 292.3 457.58 312.82 457.58 311.26 463.26" fill="url(#di)"/><polygon points="485.88 463.26 466.25 463.26 465.04 457.58 484.18 457.58 485.88 463.26" fill="url(#dj)"/><polygon points="464.39 463.26 313.13 463.26 314.62 457.58 463.24 457.58 464.39 463.26" fill="url(#dk)"/><polygon points="572.3 450.23 531.65 450.23 529.16 445.03 569.09 445.03 572.3 450.23" fill="url(#dl)"/><polygon points="576.24 456.6 541.57 456.6 538.84 451.16 572.88 451.16 576.24 456.6" fill="url(#dm)"/><polygon points="529.47 463.26 507.2 463.26 505.07 457.58 526.93 457.58 529.47 463.26" fill="url(#dn)"/><path d="M400.64,204.49a2.76,2.76,0,1,1-2.76-2.76A2.76,2.76,0,0,1,400.64,204.49Z" fill="#010101"/><rect x="550.49" y="497.76" width="29.73" height="3.25" fill="#868686"/><polygon points="362.63 427.32 362.63 427.98 362.94 425.61 362.94 425.04 362.63 427.32" fill="#646464"/><polygon points="378.42 428.77 378.42 428.12 378.08 432.69 378.08 433.35 378.42 428.77" fill="#646464"/><polygon points="368.53 434.18 368.53 433.52 368.01 438.29 368.01 438.95 368.53 434.18" fill="#646464"/><polygon points="376.6 427.98 376.6 427.32 376.78 425.04 376.78 425.7 376.6 427.98" fill="#646464"/><polygon points="390.56 427.98 390.56 427.32 390.63 425.04 390.63 425.7 390.56 427.98" fill="#646464"/><polygon points="405.13 425.04 405.13 425.7 405.2 427.98 405.2 427.32 405.13 425.04" fill="#868686"/><polygon points="418.98 425.04 418.98 425.7 419.16 427.98 419.16 427.32 418.98 425.04" fill="#868686"/><polygon points="432.82 425.04 432.82 425.7 433.13 427.98 433.13 427.32 432.82 425.04" fill="#868686"/><polygon points="446.66 425.04 446.66 425.7 447.1 427.98 447.1 427.32 446.66 425.04" fill="#868686"/><polygon points="460.51 425.04 461.06 427.32 461.06 427.98 460.51 425.7 460.51 425.04" fill="#868686"/><polygon points="474.35 425.7 474.35 425.04 475.03 427.32 475.03 427.98 474.35 425.7" fill="#868686"/><polygon points="488.19 425.7 488.19 425.04 488.99 427.32 488.99 427.98 488.19 425.7" fill="#868686"/><polygon points="502.04 425.04 502.04 425.7 502.96 427.98 502.96 427.32 502.04 425.04" fill="#868686"/><polygon points="515.88 425.04 515.88 425.7 516.93 427.98 516.93 427.32 515.88 425.04" fill="#868686"/><polygon points="529.72 425.04 529.72 425.7 530.89 427.98 530.89 427.32 529.72 425.04" fill="#868686"/><polygon points="543.57 425.04 543.57 425.7 544.86 427.98 544.86 427.32 543.57 425.04" fill="#868686"/><polygon points="546.02 433.52 546.02 434.18 548.7 438.95 548.7 438.29 546.02 433.52" fill="#868686"/><polygon points="540.99 439.15 540.99 439.81 543.65 444.79 543.65 444.13 540.99 439.15" fill="#868686"/><polygon points="538.84 451.16 538.84 451.82 541.57 457.25 541.57 456.6 538.84 451.16" fill="#868686"/><polygon points="545.24 457.58 545.24 458.24 546.52 460.72 546.52 460.06 545.24 457.58" fill="#868686"/><polygon points="546.86 460.73 546.86 461.39 548.16 463.92 548.16 463.26 546.86 460.73" fill="#868686"/><polygon points="562.04 457.62 562.04 458.28 565.19 463.92 565.19 463.26 562.04 457.62" fill="#868686"/><polygon points="529.87 457.62 529.87 458.28 532.71 463.92 532.71 463.26 529.87 457.62" fill="#868686"/><polygon points="519.43 457.25 517.14 451.82 517.14 451.16 519.43 456.6 519.43 457.25" fill="#868686"/><polygon points="531.65 450.88 529.16 445.69 529.16 445.03 531.65 450.23 531.65 450.88" fill="#868686"/><polygon points="507.2 463.92 505.07 458.24 505.07 457.58 507.2 463.26 507.2 463.92" fill="#868686"/><polygon points="509.77 450.88 507.71 445.69 507.71 445.03 509.77 450.23 509.77 450.88" fill="#868686"/><polygon points="522.52 444.79 520.28 439.81 520.28 439.15 522.52 444.13 522.52 444.79" fill="#868686"/><polygon points="528.8 438.95 526.49 434.18 526.49 433.52 528.8 438.29 528.8 438.95" fill="#868686"/><polygon points="535.37 433.35 532.97 428.77 532.97 428.12 535.37 432.69 535.37 433.35" fill="#868686"/><polygon points="513.15 428.12 513.15 428.77 515.18 433.35 515.18 432.69 513.15 428.12" fill="#868686"/><polygon points="506.83 433.52 506.83 434.18 508.79 438.95 508.79 438.29 506.83 433.52" fill="#868686"/><polygon points="501.85 444.13 499.98 439.15 499.98 439.81 501.85 444.79 501.85 444.13" fill="#868686"/><polygon points="497.61 457.25 495.73 451.82 495.73 451.16 497.61 456.6 497.61 457.25" fill="#868686"/><polygon points="488.43 450.88 486.76 445.69 486.76 445.03 488.43 450.23 488.43 450.88" fill="#868686"/><polygon points="487.74 463.92 485.98 458.24 485.98 457.58 487.74 463.26 487.74 463.92" fill="#868686"/><polygon points="475.79 457.25 474.32 451.82 474.32 451.16 475.79 456.6 475.79 457.25" fill="#868686"/><polygon points="481.18 444.79 479.68 439.81 479.68 439.15 481.18 444.13 481.18 444.79" fill="#868686"/><polygon points="488.78 438.95 487.17 434.18 487.17 433.52 488.78 438.29 488.78 438.95" fill="#868686"/><polygon points="495.68 433.35 493.99 428.77 493.99 428.12 495.68 432.69 495.68 433.35" fill="#868686"/><polygon points="468.77 438.95 467.51 434.18 467.51 433.52 468.77 438.29 468.77 438.95" fill="#868686"/><polygon points="476.18 433.35 474.83 428.77 474.83 428.12 476.18 432.69 476.18 433.35" fill="#868686"/><polygon points="456.68 433.35 455.66 428.77 455.66 428.12 456.68 432.69 456.68 433.35" fill="#868686"/><polygon points="448.76 438.95 447.86 434.18 447.86 433.52 448.76 438.29 448.76 438.95" fill="#868686"/><polygon points="460.5 444.79 459.38 439.81 459.38 439.15 460.5 444.13 460.5 444.79" fill="#868686"/><polygon points="467.09 450.88 465.82 445.69 465.82 445.03 467.09 450.23 467.09 450.88" fill="#868686"/><polygon points="445.75 450.88 444.87 445.69 444.87 445.03 445.75 450.23 445.75 450.88" fill="#868686"/><polygon points="453.96 457.25 452.91 451.82 452.91 451.16 453.96 456.6 453.96 457.25" fill="#868686"/><polygon points="465.04 458.24 465.04 457.58 466.25 463.26 466.25 463.92 465.04 458.24" fill="#868686"/><polygon points="439.83 444.79 439.07 439.81 439.07 439.15 439.83 444.13 439.83 444.79" fill="#868686"/><polygon points="424.41 450.88 423.92 445.69 423.92 445.03 424.41 450.23 424.41 450.88" fill="#868686"/><polygon points="419.16 444.79 418.77 439.81 418.77 439.15 419.16 444.13 419.16 444.79" fill="#868686"/><polygon points="428.75 438.95 428.2 434.18 428.2 433.52 428.75 438.29 428.75 438.95" fill="#868686"/><polygon points="437.18 433.35 436.5 428.77 436.5 428.12 437.18 432.69 437.18 433.35" fill="#868686"/><polygon points="417.68 433.35 417.34 428.77 417.34 428.12 417.68 432.69 417.68 433.35" fill="#868686"/><polygon points="408.47 434.18 408.66 438.95 408.66 438.29 408.47 433.52 408.47 434.18" fill="#868686"/><polygon points="432.14 457.25 431.5 451.82 431.5 451.16 432.14 456.6 432.14 457.25" fill="#868686"/><polygon points="410.24 457.25 410.01 451.82 410.01 451.16 410.24 456.6 410.24 457.25" fill="#868686"/><polygon points="365.47 457.25 366.08 451.82 366.08 451.16 365.47 456.6 365.47 457.25" fill="#646464"/><polygon points="359.21 450.88 359.21 450.23 359.92 445.03 359.92 445.69 359.21 450.88" fill="#646464"/><polygon points="377.24 439.15 377.24 439.81 376.86 444.79 376.86 444.13 377.24 439.15" fill="#646464"/><polygon points="380.94 445.69 380.62 450.88 380.62 450.23 380.94 445.03 380.94 445.69" fill="#646464"/><polygon points="387.37 457.25 387.37 456.6 387.57 451.16 387.57 451.82 387.37 457.25" fill="#646464"/><polygon points="359.26 428.12 358.58 432.69 358.58 433.35 359.26 428.77 359.26 428.12" fill="#646464"/><polygon points="348.67 427.32 348.67 427.98 349.1 425.7 349.1 425.04 348.67 427.32" fill="#646464"/><polygon points="348.88 433.52 348 438.29 348 438.95 348.88 434.18 348.88 433.52" fill="#646464"/><polygon points="356.94 439.15 356.18 444.13 356.18 444.79 356.94 439.81 356.94 439.15" fill="#646464"/><polygon points="340.1 428.12 339.08 432.69 339.08 433.35 340.1 428.77 340.1 428.12" fill="#646464"/><polygon points="344.67 451.16 343.65 456.6 343.65 457.25 344.67 451.82 344.67 451.16" fill="#646464"/><polygon points="337.87 450.23 337.87 450.88 338.97 445.69 338.97 445.03 337.87 450.23" fill="#646464"/><polygon points="335.51 444.13 335.51 444.79 336.63 439.81 336.63 439.15 335.51 444.13" fill="#646464"/><polygon points="323.25 451.16 321.82 456.6 321.82 457.25 323.25 451.82 323.25 451.16" fill="#646464"/><polygon points="329.22 433.52 327.98 438.29 327.98 438.95 329.22 434.18 329.22 433.52" fill="#646464"/><polygon points="335.25 425.04 334.7 427.32 334.7 427.98 335.25 425.7 335.25 425.04" fill="#646464"/><polygon points="321.41 425.04 320.73 427.32 320.73 427.98 321.41 425.7 321.41 425.04" fill="#646464"/><polygon points="320.93 428.12 319.58 432.69 319.58 433.35 320.93 428.77 320.93 428.12" fill="#646464"/><polygon points="307.57 425.04 306.77 427.32 306.77 427.98 307.57 425.7 307.57 425.04" fill="#646464"/><polygon points="309.56 433.52 307.97 438.29 307.97 438.95 309.56 434.18 309.56 433.52" fill="#646464"/><polygon points="316.33 439.15 314.84 444.13 314.84 444.79 316.33 439.81 316.33 439.15" fill="#646464"/><polygon points="318.02 445.03 316.52 450.23 316.52 450.88 318.02 445.69 318.02 445.03" fill="#646464"/><polygon points="312.82 457.58 311.26 463.26 311.26 463.92 312.82 458.24 312.82 457.58" fill="#646464"/><polygon points="290.5 457.58 288.39 463.26 288.39 463.92 290.5 458.24 290.5 457.58" fill="#646464"/><polygon points="301.84 451.16 300 456.6 300 457.25 301.84 451.82 301.84 451.16" fill="#646464"/><polygon points="297.08 445.03 295.19 450.23 295.19 450.88 297.08 445.69 297.08 445.03" fill="#646464"/><polygon points="296.03 439.15 294.16 444.13 294.16 444.79 296.03 439.81 296.03 439.15" fill="#646464"/><polygon points="289.9 433.52 287.96 438.29 287.96 438.95 289.9 434.18 289.9 433.52" fill="#646464"/><polygon points="301.77 428.12 300.08 432.69 300.08 433.35 301.77 428.77 301.77 428.12" fill="#646464"/><polygon points="293.72 425.04 292.8 427.32 292.8 427.98 293.72 425.7 293.72 425.04" fill="#646464"/><polygon points="279.88 425.04 278.83 427.32 278.83 427.98 279.88 425.7 279.88 425.04" fill="#646464"/><polygon points="282.61 428.12 280.58 432.69 280.58 433.35 282.61 428.77 282.61 428.12" fill="#646464"/><polygon points="266.04 425.04 264.87 427.32 264.87 427.98 266.04 425.7 266.04 425.04" fill="#646464"/><polygon points="262.79 428.12 260.39 432.69 260.39 433.35 262.79 428.77 262.79 428.12" fill="#646464"/><polygon points="270.25 433.52 267.95 438.29 267.95 438.95 270.25 434.18 270.25 433.52" fill="#646464"/><polygon points="275.73 439.15 273.49 444.13 273.49 444.79 275.73 439.81 275.73 439.15" fill="#646464"/><polygon points="276.13 445.03 273.85 450.23 273.85 450.88 276.13 445.69 276.13 445.03" fill="#646464"/><polygon points="280.43 451.16 278.18 456.6 278.18 457.25 280.43 451.82 280.43 451.16" fill="#646464"/><polygon points="264.04 457.58 261.39 463.26 261.39 463.92 264.04 458.24 264.04 457.58" fill="#646464"/><polygon points="258.48 451.16 255.78 456.6 255.78 457.25 258.48 451.82 258.48 451.16" fill="#646464"/><polygon points="244.95 457.58 241.92 463.26 241.92 463.92 244.95 458.24 244.95 457.58" fill="#646464"/><polygon points="254.68 445.03 251.97 450.23 251.97 450.88 254.68 445.69 254.68 445.03" fill="#646464"/><polygon points="254.77 439.15 252.12 444.13 252.12 444.79 254.77 439.81 254.77 439.15" fill="#646464"/><polygon points="249.74 433.52 247.06 438.29 247.06 438.95 249.74 434.18 249.74 433.52" fill="#646464"/><polygon points="252.19 425.04 250.9 427.32 250.9 427.98 252.19 425.7 252.19 425.04" fill="#646464"/><g style="mix-blend-mode:multiply"><rect x="261.21" y="131.42" width="282.41" height="279.19" rx="5.19" fill="#fff" opacity="0"/><rect x="261.79" y="131.98" width="281.13" height="278.12" rx="5.26" fill="#fcfcfd" opacity="0.03"/><rect x="262.37" y="132.54" width="279.84" height="277.05" rx="5.32" fill="#fafafa" opacity="0.06"/><rect x="262.95" y="133.1" width="278.56" height="275.98" rx="5.39" fill="#f8f8f8" opacity="0.1"/><rect x="263.53" y="133.66" width="277.28" height="274.91" rx="5.46" fill="#f6f6f7" opacity="0.13"/><rect x="264.11" y="134.22" width="276" height="273.84" rx="5.52" fill="#f4f4f5" opacity="0.16"/><rect x="264.69" y="134.78" width="274.72" height="272.77" rx="5.59" fill="#f2f3f4" opacity="0.19"/><rect x="265.27" y="135.34" width="273.43" height="271.69" rx="5.65" fill="#f1f1f2" opacity="0.23"/><rect x="265.85" y="135.9" width="272.15" height="270.62" rx="5.72" fill="#eff0f1" opacity="0.26"/><rect x="266.43" y="136.46" width="270.87" height="269.55" rx="5.79" fill="#eeeef0" opacity="0.29"/><rect x="267.02" y="137.02" width="269.59" height="268.48" rx="5.85" fill="#ecedef" opacity="0.32"/><rect x="267.6" y="137.58" width="268.31" height="267.41" rx="5.92" fill="#ebebed" opacity="0.35"/><rect x="268.18" y="138.14" width="267.02" height="266.34" rx="5.99" fill="#e9eaec" opacity="0.39"/><rect x="268.76" y="138.7" width="265.74" height="265.27" rx="6.05" fill="#e8e9eb" opacity="0.42"/><rect x="269.34" y="139.26" width="264.46" height="264.2" rx="6.12" fill="#e6e7ea" opacity="0.45"/><rect x="269.92" y="139.82" width="263.18" height="263.13" rx="6.19" fill="#e4e6e9" opacity="0.48"/><rect x="270.5" y="140.38" width="261.9" height="262.06" rx="6.25" fill="#e3e5e8" opacity="0.52"/><rect x="271.08" y="140.94" width="260.61" height="260.99" rx="6.32" fill="#e1e3e6" opacity="0.55"/><rect x="271.66" y="141.5" width="259.33" height="259.92" rx="6.38" fill="#e0e2e5" opacity="0.58"/><rect x="272.24" y="142.06" width="258.05" height="258.85" rx="6.45" fill="#dee1e4" opacity="0.61"/><rect x="272.83" y="142.62" width="256.77" height="257.78" rx="6.52" fill="#dddfe3" opacity="0.65"/><rect x="273.41" y="143.18" width="255.48" height="256.71" rx="6.58" fill="#dbdee2" opacity="0.68"/><rect x="273.99" y="143.74" width="254.2" height="255.64" rx="6.65" fill="#dadde1" opacity="0.71"/><rect x="274.57" y="144.29" width="252.92" height="254.57" rx="6.72" fill="#d8dbe0" opacity="0.74"/><rect x="275.15" y="144.85" width="251.64" height="253.5" rx="6.78" fill="#d7dadf" opacity="0.77"/><rect x="275.73" y="145.41" width="250.36" height="252.43" rx="6.85" fill="#d5d9de" opacity="0.81"/><rect x="276.31" y="145.97" width="249.07" height="251.36" rx="6.92" fill="#d4d8dd" opacity="0.84"/><rect x="276.89" y="146.53" width="247.79" height="250.29" rx="6.98" fill="#d2d6dc" opacity="0.87"/><rect x="277.47" y="147.09" width="246.51" height="249.22" rx="7.05" fill="#d1d5da" opacity="0.9"/><path d="M285.17,147.65h231a7.11,7.11,0,0,1,7.11,7.11V388.69a7.11,7.11,0,0,1-7.11,7.11h-231a7.11,7.11,0,0,1-7.11-7.11V154.77a7.12,7.12,0,0,1,7.12-7.12Z" fill="#d0d4d9" opacity="0.94"/><rect x="278.64" y="148.21" width="243.95" height="247.08" rx="7.18" fill="#ced3d8" opacity="0.97"/><rect x="279.22" y="148.77" width="242.66" height="246.01" rx="7.25" fill="#cdd1d7"/></g><rect x="272.35" y="159.92" width="251.64" height="249.8" fill="#fff"/><path d="M274.35,146H522a2,2,0,0,1,2,2v11.89a0,0,0,0,1,0,0H272.35a0,0,0,0,1,0,0V148A2,2,0,0,1,274.35,146Z" fill="#545454"/><circle cx="281.27" cy="152.97" r="3.09" fill="#fff"/><circle cx="289.75" cy="152.97" r="3.09" fill="#fff"/><circle cx="298.24" cy="152.97" r="3.09" fill="#fff"/><rect x="316.9" y="149.88" width="92.59" height="6.17" fill="#fff"/><rect x="272.35" y="159.92" width="251.64" height="25.72" fill="#dcdcdc"/><rect x="278.51" y="170.33" width="30.86" height="4.37" rx="1.16" fill="#0087b9"/><rect x="319.66" y="170.33" width="30.86" height="4.37" rx="1.16" fill="#0087b9"/><rect x="360.81" y="170.33" width="30.86" height="4.37" rx="1.16" fill="#0087b9"/><rect x="487.9" y="170.33" width="30.86" height="4.37" rx="1.16" fill="#0087b9"/><path d="M488.86,233H404.91a2.36,2.36,0,0,1-2.36-2.37h0a2.36,2.36,0,0,1,2.36-2.36h83.95a2.36,2.36,0,0,1,2.36,2.36h0A2.36,2.36,0,0,1,488.86,233Z" fill="#00a5e1"/><path d="M488.86,247.05H404.91a2.36,2.36,0,0,1-2.36-2.37h0a2.36,2.36,0,0,1,2.36-2.36h83.95a2.36,2.36,0,0,1,2.36,2.36h0A2.36,2.36,0,0,1,488.86,247.05Z" fill="#00a5e1"/><path d="M488.86,261.1H404.91a2.36,2.36,0,0,1-2.36-2.37h0a2.36,2.36,0,0,1,2.36-2.36h83.95a2.36,2.36,0,0,1,2.36,2.36h0A2.36,2.36,0,0,1,488.86,261.1Z" fill="#00a5e1"/><path d="M488.86,275.15H404.91a2.36,2.36,0,0,1-2.36-2.36h0a2.36,2.36,0,0,1,2.36-2.37h83.95a2.36,2.36,0,0,1,2.36,2.37h0A2.36,2.36,0,0,1,488.86,275.15Z" fill="#00a5e1"/><path d="M488.86,289.2H404.91a2.36,2.36,0,0,1-2.36-2.36h0a2.36,2.36,0,0,1,2.36-2.37h83.95a2.36,2.36,0,0,1,2.36,2.37h0A2.36,2.36,0,0,1,488.86,289.2Z" fill="#00a5e1"/><path d="M488.86,303.25H301.51a2.36,2.36,0,0,1-2.36-2.36h0a2.37,2.37,0,0,1,2.36-2.37H488.86a2.36,2.36,0,0,1,2.36,2.37h0A2.36,2.36,0,0,1,488.86,303.25Z" fill="#00a5e1"/><path d="M488.86,317.3H301.51a2.36,2.36,0,0,1-2.36-2.36h0a2.37,2.37,0,0,1,2.36-2.37H488.86a2.36,2.36,0,0,1,2.36,2.37h0A2.36,2.36,0,0,1,488.86,317.3Z" fill="#00a5e1"/><rect x="310.12" y="202.24" width="176.09" height="10.03" rx="2.17" fill="#00ab8a"/><rect x="299.15" y="224.58" width="87.99" height="62.25" rx="1.55" fill="#ffe432"/><path d="M454.66,399.82h-113c-1.21,0-2.18-1.29-2.18-2.89V329.4c0-1.6,1-2.89,2.18-2.89h113c1.21,0,2.18,1.29,2.18,2.89v67.53C456.84,398.53,455.87,399.82,454.66,399.82Z" fill="#ee2b63"/><path d="M454.66,399.82h-113c-1.21,0-2.18-1.29-2.18-2.89v-7.35H456.84v7.35C456.84,398.53,455.87,399.82,454.66,399.82Z" fill="#545454"/><rect x="344.71" y="394.34" width="90.74" height="0.72" rx="0.2" stroke-width="0.47" stroke="#fff" stroke-linecap="round" stroke-linejoin="round" fill="none"/><path d="M406.87,360.27a8.71,8.71,0,1,1-8.7-8.7A8.71,8.71,0,0,1,406.87,360.27Z" fill="#fff"/><polygon points="396.35 357.12 401.8 360.27 396.35 363.42 396.35 357.12" fill="#ee2b63" stroke="#ee2b63" stroke-linecap="round" stroke-linejoin="round" stroke-width="0.94"/><rect x="444.6" y="393.71" width="7" height="3.98" stroke-width="0.47" stroke="#fff" stroke-linecap="round" stroke-linejoin="round" fill="none"/><rect x="441.1" y="391.72" width="7" height="3.98" stroke-width="0.47" stroke="#fff" stroke-linecap="round" stroke-linejoin="round" fill="none"/><rect x="29.59" y="309.21" width="147.98" height="132.44" rx="6.77" fill="#00acbd"/><path d="M50.54,321.73H53.3c.21.34.36.57.45.73a16.47,16.47,0,0,0,1.92,2.85q.59.13,6.13.13,3.44,0,6.12,0l.9-.1,5.4-.05,10.11.05h13.8l2.64-.36a5,5,0,0,0,1.25-2.18c.12-.27.29-.64.5-1.13l2,0c.3,0,.75,0,1.34,0q0,3.09.05,9.3l0,4,0,2.28a9.86,9.86,0,0,1-.18,2,15.67,15.67,0,0,1-3.22.71,29.58,29.58,0,0,1-2.53-5.05,21.38,21.38,0,0,0-1.72-3.66,2.52,2.52,0,0,0-1.26-.76q-1.06-.22-9.5-.22c-.84,0-1.88.06-3.13.17a23.56,23.56,0,0,0-.23,2.86l.05,6v13.14l.13,14.17,0,5.81a14.79,14.79,0,0,0,.54,4.65,11.46,11.46,0,0,0,2.64.58c.25,0,1.35.27,3.33.72a17.46,17.46,0,0,1,2.38.71c.15,1.08.23,1.73.23,2a7.2,7.2,0,0,1-.14,1.16c-.65,0-1.19,0-1.61,0a77.93,77.93,0,0,1-7.82-.34q-3.23-.33-11.67-.33-1.34,0-7.86.53c-1.7.12-2.81.18-3.31.18,0-.44-.06-.79-.09-1l0-1v-.36a6.31,6.31,0,0,1,3.72-1.92,35,35,0,0,0,6.43-2,5.62,5.62,0,0,0,.54-2.24c.2-3.57.31-9.27.31-17.07l-.22-16.9a71.92,71.92,0,0,0-.27-8.45,1.07,1.07,0,0,0-.31-.6,1.13,1.13,0,0,0-.63-.25q-1.38-.16-9-.17c-2.8,0-4.68.26-5.63.8q-1.92,1.11-5.77,6.08c-.74.95-1.29,1.43-1.65,1.43a10.08,10.08,0,0,1-2.64-1.75,86.3,86.3,0,0,0,3.85-11.62C50,323.47,50.33,322.33,50.54,321.73Z" fill="#151515"/><line x1="119.79" y1="327.36" x2="160" y2="327.36" fill="none" stroke="#151515" stroke-linecap="round" stroke-linejoin="round" stroke-width="2"/><line x1="119.79" y1="351.93" x2="160" y2="351.93" fill="none" stroke="#151515" stroke-linecap="round" stroke-linejoin="round" stroke-width="2"/><line x1="119.79" y1="376.49" x2="160" y2="376.49" fill="none" stroke="#151515" stroke-linecap="round" stroke-linejoin="round" stroke-width="2"/><line x1="50.63" y1="401.06" x2="160" y2="401.06" fill="none" stroke="#151515" stroke-linecap="round" stroke-linejoin="round" stroke-width="2"/><line x1="50.63" y1="425.62" x2="160" y2="425.62" fill="none" stroke="#151515" stroke-linecap="round" stroke-linejoin="round" stroke-width="2"/><rect x="59.18" y="66.21" width="161.42" height="110.03" rx="4.19" fill="#ee2b63"/><g style="mix-blend-mode:multiply"><path d="M114.57,134.94a7.1,7.1,0,0,1,2.77-2.13,18.45,18.45,0,0,0,6.52-5.53,11.28,11.28,0,0,0,2.56-6.6q0-3.83-3.83-5.89c-3.64-1.89-5.94-3.42-6.88-4.61a8.57,8.57,0,0,1-1.85-5.46,9.39,9.39,0,0,1,3-7,10.32,10.32,0,0,1,7.45-2.95q5.67,0,10.39,5.25a18.78,18.78,0,0,1,4.72,13,27.23,27.23,0,0,1-4,14.4,29.52,29.52,0,0,1-10.64,10.36c-2.89,1.65-5.13,2.48-6.74,2.48a2.56,2.56,0,0,1-2-1A9.34,9.34,0,0,1,114.57,134.94Zm34.47-.22a10.86,10.86,0,0,1,2.27-1.55,25.57,25.57,0,0,0,7-5.68,10.55,10.55,0,0,0,2.76-6.74,6.31,6.31,0,0,0-1.13-3.9c-.81-1-2.6-2.2-5.39-3.62a16.39,16.39,0,0,1-3-1.7,9.88,9.88,0,0,1-2.27-3,8.22,8.22,0,0,1-.85-3.76A9.13,9.13,0,0,1,151.53,98a10.5,10.5,0,0,1,7.58-3q5.82,0,10.61,5.25a18.69,18.69,0,0,1,4.79,13.1A25.22,25.22,0,0,1,171,126.13a32.73,32.73,0,0,1-10.11,10.66c-3.26,2.26-6.1,3.4-8.51,3.4a2.27,2.27,0,0,1-1.7-1.19,6.75,6.75,0,0,1-1.71-3.78Z" fill="#c42357"/></g><path d="M110.28,130.22a7.19,7.19,0,0,1,2.77-2.12,18.66,18.66,0,0,0,6.52-5.54,11.3,11.3,0,0,0,2.56-6.59q0-3.84-3.83-5.89-5.47-2.83-6.88-4.61a8.51,8.51,0,0,1-1.85-5.46,9.39,9.39,0,0,1,3.05-7,10.33,10.33,0,0,1,7.45-2.94q5.67,0,10.39,5.25a18.83,18.83,0,0,1,4.72,13,27.23,27.23,0,0,1-4,14.4,29.36,29.36,0,0,1-10.65,10.35c-2.88,1.66-5.13,2.48-6.73,2.48a2.56,2.56,0,0,1-2-1A9.34,9.34,0,0,1,110.28,130.22Zm34.47-.21a10.51,10.51,0,0,1,2.27-1.56,25.54,25.54,0,0,0,7-5.67,10.57,10.57,0,0,0,2.76-6.74,6.29,6.29,0,0,0-1.13-3.9c-.81-1-2.61-2.2-5.4-3.62a16.53,16.53,0,0,1-3-1.7,10,10,0,0,1-2.27-3,8.28,8.28,0,0,1-.86-3.76,9.19,9.19,0,0,1,3-6.78,10.53,10.53,0,0,1,7.59-2.94q5.82,0,10.61,5.24a18.71,18.71,0,0,1,4.79,13.1,25.22,25.22,0,0,1-3.51,12.71,32.84,32.84,0,0,1-10.11,10.66q-4.89,3.41-8.51,3.4c-.57,0-1.14-.39-1.71-1.19a6.8,6.8,0,0,1-1.7-3.77Z" fill="#fff"/><rect x="558.67" y="28.79" width="192.26" height="109.23" fill="#0087b9"/><rect x="558.67" y="28.79" width="192.26" height="109.23" stroke-width="1.55" stroke="#0087b9" stroke-linecap="round" stroke-linejoin="round" fill="none"/><path d="M681.24,83.41A26.44,26.44,0,1,1,654.8,57,26.43,26.43,0,0,1,681.24,83.41Z" fill="#fff"/><polygon points="649.28 73.85 665.84 83.41 649.28 92.97 649.28 73.85" fill="#0087b9" stroke="#0087b9" stroke-linecap="round" stroke-linejoin="round" stroke-width="1.55"/><line x1="40.98" y1="133.99" x2="140.53" y2="133.99" fill="none" stroke="#fff" stroke-linecap="round" stroke-linejoin="round" stroke-width="0.5"/><polygon points="650.93 233.52 638.82 249.2 643.96 249.2 650.93 233.52" fill="#d38f29" style="mix-blend-mode:multiply"/><rect x="605.52" y="250.39" width="167.86" height="114.41" rx="2.87" fill="#00a5e1"/><path d="M605.52,361.93V350.72l60.84-40.3,30.41,25.2L731,268.17h0L773.38,312h0v49.94a2.88,2.88,0,0,1-2.87,2.87H608.39A2.88,2.88,0,0,1,605.52,361.93Z" fill="#916226"/><circle cx="641.79" cy="281.25" r="17.09" fill="#ffe94b"/><polygon points="757.51 295.57 731.03 268.17 708.77 311.99 724.34 303.87 733.14 321.09 738.21 307.59 746.34 311.99 746.34 298.34 753.04 301.48 757.51 295.57" fill="#fff"/><polygon points="667.18 310.75 647.96 323.49 638.03 330.06 647.2 327.07 655.1 335.14 658.36 330.96 662.35 331.43 667.18 325.39 673.07 335.14 678.18 326.01 684.31 324.94 667.18 310.75" fill="#fff"/></g></svg>